<?xml version="1.0" encoding="UTF-8"?>
<!DOCTYPE svg PUBLIC "-//W3C//DTD SVG 1.1//EN" "http://www.w3.org/Graphics/SVG/1.1/DTD/svg11.dtd">
<!-- Creator: CorelDRAW X7 -->
<svg xmlns="http://www.w3.org/2000/svg" xml:space="preserve" width="182.427mm" height="42.5441mm" version="1.1" style="shape-rendering:geometricPrecision; text-rendering:geometricPrecision; image-rendering:optimizeQuality; fill-rule:evenodd; clip-rule:evenodd"
viewBox="0 0 5262 1227"
 xmlns:xlink="http://www.w3.org/1999/xlink">
 <defs>
  <style type="text/css">
   <![CDATA[
    .fil1 {fill:#723A23}
    .fil0 {fill:#9EBE29}
   ]]>
  </style>
 </defs>
 <g id="Layer_x0020_1">
  <metadata id="CorelCorpID_0Corel-Layer"/>
  <path class="fil0" d="M5262 561c0,-171 -139,-310 -310,-310 -172,0 -311,139 -311,310 0,156 115,286 265,308l14 -130 -68 -106c-2,-3 -2,-7 -1,-10 2,-3 5,-5 9,-5 2,0 4,1 6,3l61 50 17 -163c0,-4 4,-7 8,-7 4,0 8,3 8,7l10 83 22 -29c2,-3 4,-4 7,-4 3,0 6,2 8,4 2,3 2,6 1,9l-32 80 12 101 116 -92c1,-1 3,-2 6,-2 3,0 6,2 8,6 2,3 1,6 -1,9l-120 163 4 32c148,-23 261,-152 261,-307z"/>
  <path class="fil1" d="M5107 664l-123 98 -13 -112 32 -81c2,-5 -4,-8 -7,-4l-30 39 -11 -95c0,-4 -6,-4 -6,0l-18 173 -69 -57c-3,-4 -9,1 -6,5l69 108 -44 423c-1,8 5,14 12,14l123 0c8,0 14,-6 13,-14l-37 -327 121 -164c3,-4 -2,-9 -6,-6z"/>
  <path class="fil0" d="M168 416c-4,-14 -5,-29 -5,-44 0,-114 92,-206 205,-206 114,0 206,92 206,206 0,14 -1,27 -4,40 1,0 3,0 4,0 114,0 206,92 206,206 0,113 -92,205 -206,205 -13,0 -25,-1 -37,-3 21,-56 26,-116 26,-159 0,-12 -9,-20 -20,-20 -10,0 -19,7 -20,16 -11,63 -32,106 -56,136 -22,-13 -41,-30 -56,-50l-27 -299c-1,-12 -10,-21 -22,-21 -12,0 -22,9 -23,21l-24 276c-34,-30 -73,-84 -77,-174 0,-11 -9,-20 -21,-20 -9,0 -18,7 -20,16 -11,47 -23,164 94,263 -26,12 -55,18 -85,18 -114,0 -206,-92 -206,-205 0,-101 72,-184 168,-202z"/>
  <path class="fil1" d="M212 546c2,-6 10,-5 10,1 5,117 68,178 106,204l27 -306c1,-8 13,-8 14,0l37 415c47,-22 112,-74 132,-200 1,-5 9,-5 9,1 0,78 -16,222 -135,271l21 230 -142 0 31 -353c-130,-94 -123,-209 -110,-263z"/>
  <path class="fil1" d="M4124 1146l35 -175c3,-12 14,-21 26,-21l72 0c13,0 24,9 26,22l32 174c3,17 -9,31 -26,31l-139 0c-16,0 -29,-15 -26,-31z"/>
  <path class="fil0" d="M4533 1005l-146 -199c6,-7 16,-10 26,-7l50 20c22,8 42,-17 28,-36l-125 -171 1 -3c5,-11 17,-16 28,-12l46 18c20,8 37,-16 25,-33l-134 -183c0,0 0,0 0,0l8 -19c4,-9 14,-13 23,-10l38 15c17,6 31,-13 21,-27l-183 -249c-12,-17 -37,-17 -50,-1l-193 246c-11,15 3,34 20,28l45 -17c8,-3 17,0 21,8l14 22 -144 183c-13,17 4,41 25,33l53 -20c10,-4 21,0 26,9l5 8 -134 171c-15,18 5,45 27,36l59 -22c10,-4 21,-1 27,8l-155 199c-17,21 5,52 31,42l67 -26c13,-5 27,0 33,12l29 48c9,15 30,17 42,5l40 -40c10,-11 28,-11 39,1l38 40c11,13 31,12 41,-2l31 -40c10,-13 30,-14 41,-2l34 37c14,15 37,10 45,-8l13 -29c5,-13 21,-19 34,-14l58 22c26,10 48,-19 32,-41z"/>
  <path class="fil0" d="M1415 400c0,0 55,-223 -179,-356 0,0 203,123 160,362l19 -6z"/>
  <path class="fil0" d="M1237 68c0,0 -81,-68 -132,-68 0,0 95,46 122,84 0,0 -86,-25 -110,-11 0,0 121,13 139,45 0,0 -92,7 -118,24 0,0 100,-19 140,2 0,0 -98,35 -105,53 0,0 84,-42 117,-26 0,0 -83,55 -90,69 0,0 87,-58 107,-45 0,0 -76,54 -87,89 0,0 87,-80 104,-64 0,0 -71,73 -74,100 0,0 67,-77 79,-78 0,0 -64,86 -53,107 0,0 36,-69 62,-79 0,0 -46,88 -36,113 0,0 33,-88 54,-84 0,0 -31,71 -17,95 0,0 12,-54 26,-57 0,0 -15,59 -3,72 0,0 8,-34 24,-38 0,0 29,-174 -149,-303z"/>
  <path class="fil0" d="M1424 441c0,0 187,-165 414,-20 0,0 -203,-122 -394,28l-20 -8z"/>
  <path class="fil0" d="M1816 431c0,0 98,40 122,85 0,0 -85,-63 -131,-69 0,0 62,65 61,92 0,0 -68,-100 -105,-101 0,0 37,85 34,115 0,0 -30,-97 -67,-123 0,0 15,103 3,118 0,0 -3,-94 -33,-115 0,0 -9,99 -19,112 0,0 11,-105 -10,-116 0,0 -12,92 -38,118 0,0 30,-114 9,-122 0,0 -32,97 -54,112 0,0 36,-95 32,-106 0,0 -46,97 -70,98 0,0 44,-65 40,-93 0,0 -56,82 -82,84 0,0 62,-70 49,-87 0,0 -49,61 -76,61 0,0 42,-36 38,-50 0,0 -45,41 -63,37 0,0 27,-24 23,-40 0,0 141,-107 337,-10z"/>
  <path class="fil0" d="M1405 486c0,0 -146,28 -228,205 0,0 104,-178 229,-185l-1 -20z"/>
  <path class="fil0" d="M1185 694c0,0 -24,42 -29,87 0,0 48,-90 50,-95 1,-5 -16,60 -1,85 0,0 12,-83 20,-122 0,0 6,100 24,108 0,0 -21,-100 -5,-117 0,0 20,67 42,78 0,0 -35,-80 -24,-97 0,0 33,75 41,78 0,0 -28,-84 -12,-101 0,0 18,65 38,86 0,0 -17,-79 -1,-111 0,0 10,69 27,80 0,0 -12,-65 -3,-101 0,0 16,63 27,67 0,0 -17,-69 -8,-81 0,0 19,36 33,48 0,0 -11,-43 -5,-62 0,0 -133,19 -214,170z"/>
  <path class="fil0" d="M1458 507c0,0 147,21 239,194 0,0 -114,-173 -238,-175l-1 -19z"/>
  <path class="fil0" d="M1688 704c0,0 26,41 34,86 0,0 -53,-89 -55,-93 -2,-5 18,59 4,85 0,0 -15,-82 -25,-121 0,0 -1,100 -18,109 0,0 15,-101 -1,-117 0,0 -17,68 -38,80 0,0 30,-82 18,-98 0,0 -29,77 -37,80 0,0 24,-86 8,-101 0,0 -15,65 -34,87 0,0 14,-79 -5,-111 0,0 -6,69 -22,81 0,0 8,-65 -2,-101 0,0 -13,64 -24,69 0,0 14,-71 4,-82 0,0 -17,37 -31,50 0,0 10,-44 2,-62 0,0 134,12 222,159z"/>
  <path class="fil0" d="M1426 398c0,0 18,-227 169,-306 0,0 -141,115 -153,292l-16 14z"/>
  <path class="fil0" d="M1565 138c0,0 64,-71 142,-81 0,0 -105,51 -150,104 0,0 43,-28 106,-28 0,0 -118,33 -131,66 0,0 78,-32 117,-22 0,0 -105,22 -123,56 0,0 98,-24 123,-17 0,0 -133,26 -138,44 0,0 90,-21 129,0 0,0 -115,-2 -136,26 0,0 76,-8 112,16 0,0 -114,-11 -128,13 0,0 80,-2 109,17 0,0 -97,-14 -115,7 0,0 73,7 97,23 0,0 -93,-17 -105,0 0,0 38,7 60,17 0,0 -73,-1 -82,9 0,0 13,-131 113,-250z"/>
  <path class="fil0" d="M1426 422c0,0 -295,-102 -470,31 0,0 215,-102 445,-20l25 -11z"/>
  <path class="fil0" d="M1030 443c0,0 -122,37 -174,121 0,0 117,-94 207,-118 0,0 -57,34 -89,108 0,0 101,-119 149,-116 0,0 -80,73 -86,123 0,0 79,-110 131,-112 0,0 -79,101 -82,133 0,0 98,-140 124,-136 0,0 -71,93 -64,149 0,0 55,-134 100,-143 0,0 -48,84 -35,139 0,0 42,-140 80,-142 0,0 -42,92 -33,136 0,0 30,-121 65,-130 0,0 -26,88 -18,124 0,0 25,-116 52,-121 0,0 -10,48 -9,78 0,0 36,-84 53,-90 0,0 -172,-55 -371,-3z"/>
  <path class="fil1" d="M1419 1149c0,-16 12,-29 28,-29l34 0 -11 -176 -29 0c-16,0 -29,-12 -29,-28 0,-16 13,-28 29,-28l25 0 -28 -427c0,-11 -16,-10 -17,0l-17 294 15 0c15,0 28,13 28,29 0,15 -13,28 -28,28l-18 0 -12 208 30 0c15,0 28,13 28,28 0,16 -13,29 -28,29l-33 0 -8 141c0,5 3,9 8,9l93 0c5,0 9,-4 9,-9l-3 -41 -38 0c-16,0 -28,-13 -28,-28z"/>
  <path class="fil1" d="M1433 1149c0,7 6,14 14,14l37 0 -2 -29 -35 0c-8,0 -14,7 -14,15z"/>
  <path class="fil1" d="M1419 1062c7,0 14,-6 14,-14 0,-8 -7,-14 -14,-14l-31 0 -1 28 32 0z"/>
  <path class="fil1" d="M1441 902c-8,0 -14,6 -14,14 0,8 6,14 14,14l28 0 -2 -28 -26 0z"/>
  <path class="fil1" d="M1419 798c7,0 14,-7 14,-14 0,-8 -7,-15 -14,-15l-15 0 -2 29 17 0z"/>
  <path class="fil0" d="M2915 501c0,-20 -8,-38 -21,-51 10,-17 14,-37 8,-58 -5,-19 -17,-34 -33,-44 5,-19 3,-40 -7,-58 -10,-17 -26,-29 -44,-34 0,-19 -7,-39 -22,-54 -14,-14 -32,-21 -51,-22 -4,-19 -17,-36 -35,-46 -17,-10 -37,-12 -54,-8 -10,-17 -26,-30 -46,-36 -20,-5 -39,-2 -55,7 -14,-14 -33,-23 -54,-23 -20,0 -38,8 -51,21 -17,-10 -38,-13 -58,-8 -19,5 -35,17 -44,33 -19,-5 -40,-3 -58,7 -17,10 -29,26 -34,44 -20,0 -39,7 -54,22 -14,14 -22,32 -22,51 -19,5 -36,17 -46,35 -10,17 -13,37 -8,55 -17,9 -31,25 -36,46 -5,19 -2,38 7,55 -14,13 -23,32 -23,53 0,20 8,38 21,52 -10,16 -14,37 -8,57 5,19 17,35 33,45 -5,18 -3,39 7,57 10,18 26,29 44,35 -1,19 7,39 21,53 15,14 33,22 51,22 5,19 17,36 36,47 17,10 36,12 54,8 10,16 26,30 46,35 19,5 39,2 55,-6 14,14 33,22 54,22 20,0 38,-8 51,-20 17,10 38,13 58,8 19,-6 35,-18 44,-34 19,6 40,4 58,-7 17,-10 29,-26 34,-43 20,0 39,-7 54,-22 14,-14 21,-33 22,-51 19,-5 36,-17 46,-35 10,-18 12,-37 8,-55 17,-10 30,-26 36,-46 5,-19 2,-39 -7,-55 14,-14 23,-33 23,-54z"/>
  <path class="fil1" d="M2589 539l-78 121 -9 -203c-1,-5 -9,-5 -9,0l-40 733c0,3 2,5 4,5l74 0c3,0 5,-2 5,-5l-23 -489 79 -161c1,-2 -2,-3 -3,-1z"/>
  <path class="fil0" d="M3760 526c1,-4 1,-8 1,-12 0,-29 -15,-55 -39,-69 0,-1 0,-1 0,-2 0,-45 -35,-80 -79,-80 -8,0 -16,1 -23,3 0,-1 0,-2 0,-3 0,-28 -14,-52 -35,-67 10,-13 17,-30 17,-49 0,-44 -36,-80 -80,-80 -7,0 -13,1 -19,2 -8,-34 -40,-60 -77,-60 -42,0 -76,32 -79,73 -7,-2 -13,-2 -20,-2 -44,0 -80,35 -80,79 0,11 2,21 6,30 -29,12 -49,41 -49,74 0,28 15,54 38,68 -6,11 -10,25 -10,39 0,3 0,6 0,9 -8,-4 -18,-5 -28,-5 -1,0 -3,0 -5,0 -14,-24 -39,-40 -69,-40 -44,0 -79,36 -79,80 0,34 21,63 51,75 -9,12 -14,28 -14,44 0,44 36,80 80,80 44,0 80,-36 80,-80 0,-3 0,-7 -1,-10 12,20 32,35 56,39 -16,-35 -30,-62 -42,-82 -3,-6 -3,-12 0,-18 3,-5 9,-9 16,-9 5,0 9,2 13,6 28,31 52,61 74,89 19,-15 32,-38 32,-65 0,-23 -10,-44 -26,-59 2,-2 4,-4 5,-6 14,11 32,18 51,18 26,0 48,-12 63,-30 7,16 18,29 33,38 0,3 0,6 0,9 0,28 14,53 36,67 24,-24 49,-46 71,-65 3,-2 7,-4 11,-4 7,0 14,4 17,11 2,6 1,14 -4,19 -16,17 -30,34 -43,52 12,-2 23,-6 33,-12 12,31 41,53 75,53 44,0 80,-36 80,-80 0,-29 -15,-54 -38,-68z"/>
  <path class="fil1" d="M3273 573c47,81 167,323 151,620 0,2 2,3 4,3l35 0c3,0 4,-2 4,-4 -5,-41 -42,-388 176,-621 3,-3 -1,-8 -5,-5 -60,50 -150,135 -187,226 -1,3 -5,3 -6,0 -15,-25 -71,-119 -166,-223 -3,-4 -8,0 -6,4z"/>
 </g>
</svg>
