<?xml version="1.0" encoding="UTF-8"?>
<!DOCTYPE svg PUBLIC "-//W3C//DTD SVG 1.1//EN" "http://www.w3.org/Graphics/SVG/1.1/DTD/svg11.dtd">
<!-- Creator: CorelDRAW X7 -->
<svg xmlns="http://www.w3.org/2000/svg" xml:space="preserve" width="18.5093mm" height="24.8584mm" version="1.1" style="shape-rendering:geometricPrecision; text-rendering:geometricPrecision; image-rendering:optimizeQuality; fill-rule:evenodd; clip-rule:evenodd"
viewBox="0 0 1078 1447"
 xmlns:xlink="http://www.w3.org/1999/xlink">
 <defs>
  <style type="text/css">
   <![CDATA[
    .fil0 {fill:#18F260}
   ]]>
  </style>
 </defs>
 <g id="Layer_x0020_1">
  <metadata id="CorelCorpID_0Corel-Layer"/>
  <path class="fil0" d="M870 764l-197 52 -35 5c-19,3 -32,21 -30,39 3,17 18,30 34,30 2,0 4,0 6,-1l26 -3 83 66c6,6 14,8 21,8 11,0 20,-4 27,-13 12,-14 10,-36 -5,-48l-42 -34 130 -35c18,-5 29,-24 24,-42 -5,-18 -24,-29 -42,-24zm185 -204l-168 -64 86 -78c14,-13 15,-35 3,-49 -13,-14 -35,-15 -49,-2l-246 224 -40 16c-18,7 -27,27 -20,45 6,14 19,22 32,22 5,0 9,-1 13,-3l47 -18c4,-2 7,-4 10,-7l107 -97 201 76c4,1 8,2 12,2 14,0 27,-9 32,-22 7,-18 -2,-38 -20,-45zm-395 -172c30,-8 183,-50 248,-157 10,-16 5,-37 -11,-47 -17,-10 -38,-5 -48,11 -37,62 -118,98 -168,115l-4 -205c0,-18 -16,-33 -34,-33 -1,0 -1,0 -1,0 -19,0 -34,16 -34,35l5 228 -33 19 -28 -66 -77 -263c-5,-18 -24,-29 -42,-24 -19,6 -29,25 -24,43l77 265c0,2 1,3 1,4l41 95 -29 296 -55 -52c-4,-3 -8,-5 -12,-7l-61 -22 -15 -85 13 -264c1,-19 -13,-35 -32,-36 -20,-1 -36,14 -37,33l-11 219 -42 -19 -94 -85c-14,-12 -36,-11 -49,3 -12,14 -11,36 3,49l98 87c3,3 5,5 9,6l77 36 10 59 -61 22 -202 -23c-19,-3 -36,11 -38,30 -2,19 12,36 31,38l153 18 -58 103c-9,16 -3,37 13,47 6,3 11,4 17,4 12,0 24,-6 30,-18l74 -131c0,-1 0,-2 1,-3l79 -28 62 23 95 89 2 196 0 420c0,19 16,34 35,34 19,0 34,-15 34,-34l0 -420 -3 -266 31 -303 64 -36z"/>
 </g>
</svg>
