<?xml version="1.0" encoding="UTF-8"?>
<!DOCTYPE svg PUBLIC "-//W3C//DTD SVG 1.1//EN" "http://www.w3.org/Graphics/SVG/1.1/DTD/svg11.dtd">
<!-- Creator: CorelDRAW X7 -->
<svg xmlns="http://www.w3.org/2000/svg" xml:space="preserve" width="18.6702mm" height="24.858mm" version="1.1" style="shape-rendering:geometricPrecision; text-rendering:geometricPrecision; image-rendering:optimizeQuality; fill-rule:evenodd; clip-rule:evenodd"
viewBox="0 0 605 806"
 xmlns:xlink="http://www.w3.org/1999/xlink">
 <defs>
  <style type="text/css">
   <![CDATA[
    .fil0 {fill:#18F260}
   ]]>
  </style>
 </defs>
 <g id="Layer_x0020_1">
  <metadata id="CorelCorpID_0Corel-Layer"/>
  <path class="fil0" d="M350 95c2,0 4,1 6,2 3,1 5,2 8,2 7,0 14,-5 17,-12 4,-10 0,-21 -10,-25 -2,-1 -4,-2 -6,-3 -10,-4 -21,1 -25,10 -4,10 0,21 10,26zm-11 81c-3,10 2,21 13,24 10,3 21,6 31,8 2,1 3,1 4,1 9,0 17,-6 19,-15 2,-10 -4,-21 -15,-23 -9,-2 -18,-5 -28,-8 -10,-3 -21,3 -24,13zm262 432c-6,-8 -18,-10 -26,-4 -4,3 -83,60 -212,19 -10,-3 -21,3 -24,13 -3,10 2,21 13,24 37,12 71,16 101,16 88,0 142,-39 145,-41 8,-6 10,-18 3,-27zm-298 -608c-11,0 -20,9 -20,19l0 36c-6,4 -13,6 -20,9 -10,4 -15,15 -11,25 3,8 10,12 18,12 2,0 5,0 7,-1 2,-1 4,-2 6,-3l0 50c-23,11 -46,19 -69,24 -11,2 -17,13 -15,23 2,9 10,15 19,15 1,0 3,0 4,-1 20,-4 41,-10 61,-19l0 50c-38,18 -77,28 -115,30 -10,1 -18,10 -18,21 1,10 9,18 19,18 1,0 1,0 2,0 37,-3 74,-12 112,-27l0 50c-53,25 -106,35 -157,29 -10,-1 -20,7 -21,17 -1,11 7,20 17,22 10,1 21,1 31,1 43,0 86,-9 130,-27l0 50c-84,39 -152,34 -195,22 -10,-2 -21,4 -23,14 -3,10 3,21 13,23 20,6 46,10 75,10 37,0 81,-7 130,-27l0 50c-109,50 -191,28 -230,10 -10,-5 -21,-1 -26,9 -4,10 0,21 10,25 25,12 65,25 116,25 37,0 81,-7 130,-27l0 50c-152,69 -248,0 -252,-3 -9,-6 -21,-4 -27,4 -7,8 -5,20 4,27 3,2 56,41 144,41 38,0 82,-7 131,-27l0 138c0,10 9,19 20,19 10,0 19,-9 19,-19l0 -768c0,-10 -9,-19 -19,-19zm60 531c-10,-3 -21,3 -24,13 -3,10 2,21 13,24 37,12 70,16 100,16 53,0 93,-14 116,-25 10,-4 14,-15 10,-25 -5,-10 -16,-14 -26,-9 -32,14 -99,35 -189,6zm0 -92c-10,-3 -21,3 -24,13 -3,10 2,21 13,24 33,11 68,16 101,16 25,0 50,-3 74,-10 10,-2 16,-13 13,-23 -2,-10 -13,-16 -23,-14 -48,13 -100,11 -154,-6zm0 -92c-10,-3 -21,3 -24,13 -3,10 2,21 13,24 34,11 67,16 100,16 11,0 21,0 31,-1 11,-2 18,-11 17,-22 -1,-10 -10,-18 -21,-17 -37,4 -76,0 -116,-13zm-24 -79c-3,10 2,21 13,24 27,9 55,14 83,16 0,0 0,0 1,0 10,0 18,-8 19,-18 1,-11 -8,-20 -18,-21 -24,-1 -49,-6 -74,-14 -10,-3 -21,3 -24,13z"/>
 </g>
</svg>
