<?xml version="1.0" encoding="UTF-8"?>
<!DOCTYPE svg PUBLIC "-//W3C//DTD SVG 1.1//EN" "http://www.w3.org/Graphics/SVG/1.1/DTD/svg11.dtd">
<!-- Creator: CorelDRAW X7 -->
<svg xmlns="http://www.w3.org/2000/svg" xml:space="preserve" width="179.27mm" height="37.0211mm" version="1.1" style="shape-rendering:geometricPrecision; text-rendering:geometricPrecision; image-rendering:optimizeQuality; fill-rule:evenodd; clip-rule:evenodd"
viewBox="0 0 5146 1063"
 xmlns:xlink="http://www.w3.org/1999/xlink">
 <defs>
  <style type="text/css">
   <![CDATA[
    .fil1 {fill:#723A23}
    .fil0 {fill:#9EBE29}
   ]]>
  </style>
 </defs>
 <g id="Layer_x0020_1">
  <metadata id="CorelCorpID_0Corel-Layer"/>
  <path class="fil0" d="M358 146c-32,-47 -101,-46 -131,1 -141,219 -430,744 -2,792 15,1 28,-10 29,-25 14,-174 -15,-287 -88,-334 -9,-7 -23,-23 -19,-37 1,-5 6,-15 23,-15 7,0 15,2 26,5 24,7 49,26 77,53 11,11 30,9 39,-4 16,-21 37,-46 63,-65 4,-3 8,-5 13,-5 7,0 14,4 18,10 4,5 5,13 3,20 -7,19 -16,35 -25,52 -28,51 -62,113 -56,319 1,16 14,27 30,26 453,-46 147,-575 0,-793z"/>
  <path class="fil1" d="M261 986c7,-60 48,-329 -87,-418 -13,-9 -30,-36 17,-22 29,9 61,38 100,77 3,4 10,3 12,-1 12,-19 41,-64 80,-94 6,-5 15,2 13,9 -29,84 -101,104 -78,456 1,5 -3,9 -8,9l-35 0c-8,0 -15,-8 -14,-16z"/>
  <path class="fil0" d="M1467 375c3,-13 5,-26 5,-40 0,-83 -68,-151 -151,-151 -9,0 -17,1 -26,2 -27,-35 -70,-58 -119,-58 -57,0 -107,32 -133,79 -6,-1 -12,-1 -18,-1 -84,0 -151,67 -151,151 0,6 0,13 1,19 -71,12 -126,74 -126,149 0,83 68,151 151,151 60,0 111,-35 136,-85 -11,-8 -22,-15 -33,-20 -9,-4 -13,-13 -11,-23 2,-9 10,-15 19,-15 12,0 26,1 40,3 24,2 47,6 62,9 -1,-11 -4,-30 -11,-58 -2,-9 -5,-18 -8,-28 -1,-7 0,-13 4,-19 4,-5 11,-8 17,-8 6,0 12,2 16,6 4,5 8,9 12,13 12,14 23,26 31,34 10,-15 26,-28 44,-40 16,-10 34,-19 50,-26 3,-1 5,-2 8,-2 7,0 14,5 17,11 3,7 2,14 -2,20 -7,9 -13,19 -19,30 -19,37 -31,80 -34,103 10,-5 29,-11 62,-16 5,-1 11,-2 17,-3 1,0 2,0 3,0 10,0 18,6 21,15 4,10 0,19 -8,25 -4,3 -7,6 -11,10 27,38 72,64 123,64 84,0 152,-68 152,-151 0,-77 -57,-140 -130,-150z"/>
  <path class="fil1" d="M1012 545c-9,0 -12,11 -4,15 34,15 86,52 94,132 12,121 -71,287 -33,291 38,4 242,8 225,-23 -16,-29 -132,-246 32,-367 9,-7 3,-20 -7,-19 -32,4 -72,12 -86,24 -21,19 2,-97 48,-157 5,-6 -1,-13 -8,-11 -33,14 -84,41 -97,77 0,0 -23,-27 -54,-60 -7,-7 -18,-1 -16,9 10,35 23,87 18,104 0,0 -69,-14 -112,-15z"/>
  <path class="fil0" d="M2455 876l-227 -169c-1,-1 -2,-2 -3,-3l136 -1c16,0 24,-19 13,-31l-164 -175c0,-1 -1,-1 -1,-2l67 0c24,-1 39,-27 27,-47l-94 -162 -95 -161c-4,-7 -10,-11 -17,-14 -7,3 -13,7 -17,14l-94 161 -95 162c-12,20 3,46 27,47l68 0c-1,1 -1,1 -2,2l-164 175c-11,12 -2,31 14,31l136 1c-1,1 -3,2 -4,3l-226 169c-15,11 -7,36 12,36l275 2c5,-28 10,-58 12,-84 1,-13 11,-24 23,-24 7,0 12,3 17,7 8,9 15,20 21,30 7,-8 15,-20 23,-29 5,-5 11,-8 17,-8 13,0 23,10 24,23 2,22 5,54 9,85l270 -2c19,0 27,-25 12,-36z"/>
  <path class="fil1" d="M2023 987c8,-31 26,-103 29,-156 1,-10 11,-15 17,-9 7,8 15,18 21,31 3,8 12,9 17,3 7,-10 17,-23 26,-33 6,-7 17,-3 18,7 3,38 11,114 20,157 2,7 -3,15 -10,15l-128 0c-7,0 -12,-8 -10,-15z"/>
  <path class="fil0" d="M3172 322c-9,0 -19,0 -27,2 2,-13 4,-26 4,-39 0,-97 -79,-176 -176,-176 -97,0 -176,79 -176,176 0,13 1,26 4,39 -9,-2 -18,-2 -27,-2 -97,0 -176,78 -176,175 0,98 79,176 176,176 38,0 74,-12 103,-33 -3,-4 -6,-8 -9,-12 -11,-15 -21,-29 -29,-43 -4,-8 -4,-17 1,-24 4,-8 13,-13 21,-13 7,0 13,3 18,8 13,13 26,28 39,43 20,-29 32,-64 32,-102 0,-13 -2,-26 -4,-38 9,1 18,2 27,2 9,0 18,-1 27,-2 -3,12 -4,25 -4,38 0,58 28,110 71,142 6,-10 11,-21 17,-33 4,-8 11,-13 20,-13 7,0 14,4 19,9 4,5 5,12 4,19 -4,15 -7,29 -11,43 18,6 36,9 56,9 97,0 176,-78 176,-176 0,-97 -79,-175 -176,-175z"/>
  <path class="fil1" d="M2846 581c39,74 164,147 83,459 -3,11 5,21 15,21l10 0c3,0 6,-6 9,-12 20,-42 108,-216 156,-430 4,-17 -20,-25 -28,-9 -22,44 -47,91 -67,120 -7,11 -22,10 -28,-1 -21,-37 -67,-113 -123,-168 -14,-13 -36,3 -27,20z"/>
  <path class="fil0" d="M3900 0c0,0 -430,571 -42,655l4 -50 -60 -95c-2,-2 -2,-5 0,-7 1,-2 3,-4 6,-4 2,0 4,1 5,2l52 53 15 -217c1,-10 9,-15 16,-15 8,0 16,5 17,15l6 98 31 -32c2,-2 4,-2 6,-2 3,0 5,1 7,4 1,2 1,5 0,7l-41 73 11 169c108,-23 327,-132 -33,-654z"/>
  <path class="fil1" d="M3954 407l-40 39 -7 -109c0,-13 -21,-13 -22,0l-15 229 -60 -61c-2,-2 -5,0 -4,3l61 96 -29 415c-1,13 10,24 23,24l67 0c13,0 23,-11 22,-24l-33 -535 41 -74c2,-3 -2,-6 -4,-3z"/>
  <path class="fil0" d="M4713 9c0,0 -132,181 0,199 132,-18 0,-199 0,-199z"/>
  <path class="fil0" d="M4499 68c0,0 -24,223 100,173 105,-82 -100,-173 -100,-173z"/>
  <path class="fil0" d="M4343 227c0,0 91,205 173,100 51,-124 -173,-100 -173,-100z"/>
  <path class="fil0" d="M4288 442c0,0 181,132 200,0 -19,-132 -200,0 -200,0z"/>
  <path class="fil0" d="M4347 656c0,0 224,24 174,-100 -83,-105 -174,100 -174,100z"/>
  <path class="fil0" d="M4506 812c0,0 205,-91 100,-173 -124,-50 -100,173 -100,173z"/>
  <path class="fil0" d="M4935 808c0,0 24,-224 -100,-173 -105,82 100,173 100,173z"/>
  <path class="fil0" d="M5091 649c0,0 -91,-205 -173,-100 -50,124 173,100 173,100z"/>
  <path class="fil0" d="M5146 434c0,0 -181,-132 -199,0 18,132 199,0 199,0l0 0z"/>
  <path class="fil0" d="M5087 220c0,0 -223,-24 -173,100 82,105 173,-100 173,-100z"/>
  <path class="fil0" d="M4928 64c0,0 -205,91 -100,173 124,50 100,-173 100,-173z"/>
  <path class="fil1" d="M4837 322l-91 97 -15 -126c0,-3 -5,-3 -6,0l-26 189 -105 -109c-3,-3 -8,1 -6,5l98 198 -65 480c-1,3 2,7 6,7l187 0c3,0 6,-3 6,-7l-65 -557 91 -171c4,-6 -4,-11 -9,-6z"/>
 </g>
</svg>
