<?xml version="1.0" encoding="UTF-8"?>
<!DOCTYPE svg PUBLIC "-//W3C//DTD SVG 1.1//EN" "http://www.w3.org/Graphics/SVG/1.1/DTD/svg11.dtd">
<!-- Creator: CorelDRAW X7 -->
<svg xmlns="http://www.w3.org/2000/svg" xml:space="preserve" width="24.3122mm" height="24.8581mm" version="1.1" style="shape-rendering:geometricPrecision; text-rendering:geometricPrecision; image-rendering:optimizeQuality; fill-rule:evenodd; clip-rule:evenodd"
viewBox="0 0 391 399"
 xmlns:xlink="http://www.w3.org/1999/xlink">
 <defs>
  <style type="text/css">
   <![CDATA[
    .fil0 {fill:#18F260}
   ]]>
  </style>
 </defs>
 <g id="Layer_x0020_1">
  <metadata id="CorelCorpID_0Corel-Layer"/>
  <path class="fil0" d="M265 186c2,-5 0,-11 -5,-13 -5,-1 -11,1 -12,6 -10,25 -34,42 -62,42 -22,0 -42,-10 -54,-28 -4,-4 -9,-5 -14,-2 -4,3 -5,9 -2,13 16,23 42,36 70,36 36,0 68,-22 79,-54zm89 -83c0,-2 1,-5 1,-8 0,-38 -33,-69 -72,-69 -8,0 -16,1 -23,4 -16,-19 -40,-30 -65,-30 -28,0 -54,13 -69,35 -3,0 -5,-1 -8,-1 -30,0 -55,24 -58,53 -36,13 -60,47 -60,85 0,50 41,91 90,91 15,0 30,-4 43,-11 5,-2 6,-8 4,-12 -3,-5 -8,-7 -13,-4 -10,5 -22,8 -34,8 -39,0 -71,-32 -71,-72 0,-31 21,-59 51,-68 1,-1 3,-1 4,-2 3,-2 5,-5 5,-9 0,-22 17,-40 39,-40 4,0 7,1 10,2 5,1 10,-2 12,-7 0,0 0,0 0,0 12,-18 32,-29 55,-29 20,0 39,9 52,24 0,1 0,2 0,2 3,5 8,7 13,5 7,-3 15,-5 23,-5 29,0 53,23 53,50 0,4 -1,8 -2,12 -1,5 2,10 7,11 1,0 1,0 2,0 18,15 29,36 29,59 0,42 -36,76 -81,76 -17,0 -34,-5 -48,-16 -4,-3 -10,-2 -14,2 -3,5 -2,11 3,14 17,12 38,19 59,19 55,0 100,-43 100,-95 0,-29 -14,-56 -37,-74zm-112 171c-4,-3 -10,-2 -13,3l-26 36c-1,2 -1,4 -1,6l0 71c0,5 4,9 9,9 5,0 10,-4 10,-9l0 -68 24 -34c3,-5 2,-11 -3,-14zm-101 2c-3,-4 -9,-4 -13,-1 -4,4 -5,10 -1,14l29 34 0 67c0,5 4,9 9,9 5,0 10,-4 10,-9l0 -71c0,-2 -1,-4 -3,-6l-31 -37zm78 -19c-4,-3 -10,-3 -13,0l-19 19 -24 -21c-4,-3 -10,-3 -13,1 -4,4 -3,10 1,14l30 26c2,2 4,3 6,3 3,0 5,-1 7,-3l25 -25c4,-4 4,-10 0,-14z"/>
 </g>
</svg>
