<?xml version="1.0" encoding="UTF-8"?>
<!DOCTYPE svg PUBLIC "-//W3C//DTD SVG 1.1//EN" "http://www.w3.org/Graphics/SVG/1.1/DTD/svg11.dtd">
<!-- Creator: CorelDRAW X7 -->
<svg xmlns="http://www.w3.org/2000/svg" xml:space="preserve" width="21.0427mm" height="24.8581mm" version="1.1" style="shape-rendering:geometricPrecision; text-rendering:geometricPrecision; image-rendering:optimizeQuality; fill-rule:evenodd; clip-rule:evenodd"
viewBox="0 0 299 353"
 xmlns:xlink="http://www.w3.org/1999/xlink">
 <defs>
  <style type="text/css">
   <![CDATA[
    .fil0 {fill:#18F260}
   ]]>
  </style>
 </defs>
 <g id="Layer_x0020_1">
  <metadata id="CorelCorpID_0Corel-Layer"/>
  <path class="fil0" d="M250 103c1,-6 2,-12 2,-18 0,-47 -38,-85 -85,-85 -47,0 -85,38 -85,85 0,2 0,3 0,5 -47,8 -82,48 -82,96 0,54 44,98 98,98 3,0 7,0 10,0 5,-1 8,-5 7,-10 0,-4 -4,-8 -9,-7 -3,0 -5,0 -8,0 -45,0 -81,-36 -81,-81 0,-42 33,-77 75,-80 2,-1 4,-2 6,-4 1,-1 2,-4 1,-6 0,-4 0,-7 0,-11 0,-38 30,-68 68,-68 37,0 68,30 68,68 0,7 -1,13 -3,20 -1,4 1,8 4,10 28,13 46,41 46,71 0,44 -35,79 -78,79 -6,0 -12,0 -17,-2 -5,-1 -9,2 -10,7 -1,4 2,9 6,10 7,1 14,2 21,2 52,0 95,-43 95,-96 0,-34 -19,-66 -49,-83zm-74 29l26 -19c4,-3 5,-8 2,-12 -2,-3 -8,-4 -11,-1l-14 9 -1 -29c0,-5 -4,-8 -9,-8 -4,0 -8,4 -8,9l2 40 -6 4 -3 -10 -9 -32c-2,-5 -6,-7 -11,-6 -4,1 -7,6 -6,10l10 33c0,0 0,0 0,0l7 22 -5 63 -7 -8c-1,-1 -2,-1 -3,-2l-11 -3 -3 -15 3 -51c0,-5 -4,-9 -8,-9 -5,0 -9,3 -9,8l-2 40 -5 -3 -18 -16c-4,-3 -9,-3 -12,1 -3,3 -3,9 0,12l19 17c1,0 2,1 2,1l14 6 2 9 -10 4 -38 -5c-5,0 -9,3 -10,8 0,4 3,9 8,9l26 3 -9 18c-3,4 -1,9 3,11 1,1 3,1 4,1 3,0 6,-1 7,-4l14 -25 14 -5 11 4 18 16 0 37 0 81c0,4 4,8 9,8 4,0 8,-4 8,-8l0 -81 0 -51 5 -71c1,0 1,0 1,0l13 -10zm7 89l23 -21 38 15c1,0 2,0 3,0 3,0 6,-2 8,-5 1,-5 -1,-9 -5,-11l-30 -11 14 -13c4,-4 4,-9 1,-12 -3,-4 -8,-4 -12,-1l-51 47c-3,3 -4,8 0,12 1,1 3,2 6,2 2,0 4,0 5,-2z"/>
 </g>
</svg>
