<?xml version="1.0" encoding="UTF-8"?>
<!DOCTYPE svg PUBLIC "-//W3C//DTD SVG 1.1//EN" "http://www.w3.org/Graphics/SVG/1.1/DTD/svg11.dtd">
<!-- Creator: CorelDRAW X7 -->
<svg xmlns="http://www.w3.org/2000/svg" xml:space="preserve" width="18.1305mm" height="24.858mm" version="1.1" style="shape-rendering:geometricPrecision; text-rendering:geometricPrecision; image-rendering:optimizeQuality; fill-rule:evenodd; clip-rule:evenodd"
viewBox="0 0 58 79"
 xmlns:xlink="http://www.w3.org/1999/xlink">
 <defs>
  <style type="text/css">
   <![CDATA[
    .fil0 {fill:#A514D1}
   ]]>
  </style>
 </defs>
 <g id="Layer_x0020_1">
  <metadata id="CorelCorpID_0Corel-Layer"/>
  <path class="fil0" d="M28 29c0,0 0,0 1,0 0,0 1,0 1,0l3 -2c1,-1 1,-2 1,-3 -1,-1 -2,-1 -3,-1l-2 2 -2 -2c-1,0 -2,0 -3,1 -1,1 0,2 1,3l3 2zm-8 14c0,1 0,2 1,2l7 5c0,0 0,0 1,0 0,0 1,0 1,0l7 -5c1,0 1,-1 0,-2 0,-1 -1,-1 -2,-1l-6 4 -6 -4c-1,0 -2,0 -3,1zm37 17l-11 -14 6 0c1,0 1,-1 1,-1 1,-1 1,-2 0,-2l-12 -17 5 0c1,0 1,0 2,-1 0,0 0,-1 -1,-2l-17 -22c0,-1 -1,-1 -1,-1 -1,0 -1,0 -2,1l-17 22c0,1 0,2 0,2 0,1 1,1 2,1l4 0 -12 17c0,0 0,1 0,2 0,0 1,1 2,1l6 0 -12 14c0,1 0,2 0,2 1,1 1,1 2,1l25 0 0 14c0,1 1,2 2,2 1,0 2,-1 2,-2l0 -15c0,-2 -1,-2 -2,-2l-23 0 11 -15c0,-1 0,-1 0,-2 0,-1 -1,-1 -2,-1l-5 0 12 -16c0,-1 0,-2 0,-2 0,-1 -1,-1 -2,-1l-4 0 13 -18 13 18 -5 0c0,0 -1,0 -1,1 -1,0 -1,1 0,2l12 16 -6 0c0,0 -1,0 -1,1 -1,1 -1,1 0,2l11 15 -17 0c-1,0 -2,0 -2,2 0,1 1,1 2,1l21 0c0,0 1,0 1,-1 1,0 1,-1 0,-2z"/>
 </g>
</svg>
