<?xml version="1.0" encoding="UTF-8"?>
<!DOCTYPE svg PUBLIC "-//W3C//DTD SVG 1.1//EN" "http://www.w3.org/Graphics/SVG/1.1/DTD/svg11.dtd">
<!-- Creator: CorelDRAW X7 -->
<svg xmlns="http://www.w3.org/2000/svg" xml:space="preserve" width="16.813mm" height="24.8581mm" version="1.1" style="shape-rendering:geometricPrecision; text-rendering:geometricPrecision; image-rendering:optimizeQuality; fill-rule:evenodd; clip-rule:evenodd"
viewBox="0 0 832 1231"
 xmlns:xlink="http://www.w3.org/1999/xlink">
 <defs>
  <style type="text/css">
   <![CDATA[
    .fil0 {fill:#18F260}
   ]]>
  </style>
 </defs>
 <g id="Layer_x0020_1">
  <metadata id="CorelCorpID_0Corel-Layer"/>
  <path class="fil0" d="M424 859l221 0c16,0 30,-13 30,-29 0,-16 -14,-29 -30,-29l-221 0c-16,0 -30,13 -30,29 0,16 13,29 30,29zm0 -142l162 0c16,0 29,-13 29,-30 0,-16 -13,-29 -29,-29l-162 0c-16,0 -30,13 -30,29 0,17 13,30 30,30zm0 -143l102 0c16,0 29,-13 29,-29 0,-16 -13,-29 -29,-29l-102 0c-16,0 -30,13 -30,29 0,16 13,29 30,29zm406 370l-387 -926c-4,-11 -15,-18 -27,-18 -12,0 -22,7 -27,18l-387 926c-4,9 -3,19 3,28 5,8 14,13 24,13l283 0c16,0 29,-14 29,-30 0,-16 -13,-29 -29,-29l-239 0 343 -821 343 821 -343 0c0,0 0,0 0,0 -16,0 -29,13 -29,29l0 246c0,17 13,30 29,30 16,0 29,-13 29,-30l0 -216 358 0c10,0 19,-5 24,-13 6,-9 7,-19 3,-28zm-406 -512l43 0c16,0 29,-13 29,-30 0,-16 -13,-29 -29,-29l-43 0c-16,0 -30,13 -30,29 0,17 13,30 30,30zm0 -143l3 0c16,0 29,-13 29,-29 0,-16 -13,-29 -29,-29l-3 0c-16,0 -30,13 -30,29 0,16 13,29 30,29z"/>
 </g>
</svg>
