<?xml version="1.0" encoding="UTF-8"?>
<!DOCTYPE svg PUBLIC "-//W3C//DTD SVG 1.1//EN" "http://www.w3.org/Graphics/SVG/1.1/DTD/svg11.dtd">
<!-- Creator: CorelDRAW X7 -->
<svg xmlns="http://www.w3.org/2000/svg" xml:space="preserve" width="20.8233mm" height="24.858mm" version="1.1" style="shape-rendering:geometricPrecision; text-rendering:geometricPrecision; image-rendering:optimizeQuality; fill-rule:evenodd; clip-rule:evenodd"
viewBox="0 0 293 350"
 xmlns:xlink="http://www.w3.org/1999/xlink">
 <defs>
  <style type="text/css">
   <![CDATA[
    .fil0 {fill:#18F260}
   ]]>
  </style>
 </defs>
 <g id="Layer_x0020_1">
  <metadata id="CorelCorpID_0Corel-Layer"/>
  <path class="fil0" d="M78 192c0,4 4,8 9,8 6,0 12,-1 18,-2 16,17 37,22 38,22 1,1 2,1 4,1 1,0 2,0 4,0 2,-1 22,-6 37,-23 6,1 12,2 19,2 4,0 8,-4 8,-8 0,-5 -4,-9 -8,-9 -9,0 -15,-1 -18,-3 -4,-1 -8,0 -10,3 -12,16 -32,21 -32,21 -1,0 -21,-5 -33,-21 -2,-3 -6,-4 -9,-3 -4,2 -10,3 -18,3 -5,0 -9,4 -9,9zm33 -62c1,-1 3,-1 4,-1 1,0 2,0 2,0 11,10 23,13 26,14 1,0 3,0 4,0 1,0 3,0 4,0 3,-1 15,-4 26,-14 1,0 3,0 6,1 4,0 8,-4 8,-8 1,-5 -3,-9 -7,-9 -3,0 -6,-1 -8,-1 -3,-1 -6,0 -8,2 -9,10 -20,13 -21,13 -1,0 -12,-3 -20,-13 -3,-2 -6,-3 -9,-2 -2,0 -3,0 -5,1 -1,0 -2,0 -3,0 -5,0 -8,4 -8,9 0,4 4,8 9,8zm174 91c-1,0 -21,-14 -38,-30 3,-1 5,-3 8,-4 6,-3 10,-9 10,-15 0,-7 -3,-13 -8,-16 -11,-8 -30,-22 -39,-34 1,-1 2,-1 3,-2 6,-3 10,-9 10,-16 0,-6 -2,-12 -7,-16 -34,-26 -65,-80 -65,-81 -3,-4 -7,-7 -12,-7 -6,0 -10,3 -13,8 0,0 -29,54 -64,80 -5,4 -8,10 -8,17 1,6 5,12 10,15 1,1 2,1 3,1 -9,10 -26,24 -40,35 -4,4 -7,10 -7,16 1,6 5,12 10,15 2,1 5,2 7,3 -12,12 -26,24 -37,32 -6,4 -9,11 -8,18 3,19 44,32 60,32 8,0 17,-1 24,-4 12,13 31,20 54,22l0 52c0,4 4,8 9,8 4,0 8,-4 8,-8l0 -59c0,0 0,-1 0,-1 0,-4 -4,-8 -8,-8 -1,0 -1,0 -2,0 0,0 -1,-1 -1,-1 -24,-1 -42,-8 -51,-19 -2,-3 -6,-4 -9,-3 -5,2 -13,4 -24,4 -16,0 -41,-12 -43,-17 0,-1 0,-2 1,-3 14,-11 35,-28 48,-42 2,-2 3,-5 2,-8 0,-3 -2,-5 -5,-6 -6,-2 -12,-4 -17,-7 -1,0 -1,0 -1,-1 0,-1 0,-1 0,-2 1,0 40,-30 49,-46l1 0c1,-3 2,-5 1,-8 -1,-2 -3,-4 -5,-5 -4,-1 -8,-3 -11,-5 -1,0 -1,-1 -1,-2 0,0 0,-1 1,-2 32,-24 59,-68 67,-82 8,14 35,58 66,82 1,1 1,2 1,2 0,1 0,2 -1,2 -3,2 -7,4 -10,5 -3,1 -5,3 -6,5 0,3 0,5 2,8l0 0c11,21 48,46 49,46 0,1 0,1 0,2 0,0 0,1 0,1 -6,3 -13,6 -19,8 -2,0 -4,3 -5,5 -1,3 0,6 2,8 18,21 49,42 49,42 1,1 1,1 2,2 -2,4 -15,16 -44,18 -11,0 -18,-2 -23,-4 -4,-1 -8,0 -10,3 -6,7 -16,13 -28,16 -4,1 -7,6 -6,11 1,4 6,7 10,5 14,-3 25,-9 33,-18 8,3 16,4 25,4 0,0 0,0 0,0 37,-3 59,-21 59,-33 1,-7 -3,-14 -8,-18z"/>
 </g>
</svg>
