<?xml version="1.0" encoding="UTF-8"?>
<!DOCTYPE svg PUBLIC "-//W3C//DTD SVG 1.1//EN" "http://www.w3.org/Graphics/SVG/1.1/DTD/svg11.dtd">
<!-- Creator: CorelDRAW X7 -->
<svg xmlns="http://www.w3.org/2000/svg" xml:space="preserve" width="26.116mm" height="33.1436mm" version="1.1" style="shape-rendering:geometricPrecision; text-rendering:geometricPrecision; image-rendering:optimizeQuality; fill-rule:evenodd; clip-rule:evenodd"
viewBox="0 0 154 195"
 xmlns:xlink="http://www.w3.org/1999/xlink">
 <defs>
  <style type="text/css">
   <![CDATA[
    .fil1 {fill:#723A23}
    .fil0 {fill:#9EBE29}
   ]]>
  </style>
 </defs>
 <g id="Layer_x0020_1">
  <metadata id="CorelCorpID_0Corel-Layer"/>
  <path class="fil0" d="M118 44c-2,0 -4,0 -6,0 1,-3 1,-5 1,-8 0,-20 -16,-36 -36,-36 -20,0 -36,16 -36,36 0,3 0,5 1,8 -2,0 -4,0 -6,0 -20,0 -36,16 -36,36 0,20 16,36 36,36 8,0 15,-3 21,-7 0,-1 -1,-2 -2,-3 -2,-3 -4,-6 -6,-8 0,-2 0,-4 1,-5 1,-2 2,-3 4,-3 1,0 3,1 4,2 2,2 5,5 8,8 4,-5 6,-13 6,-20 0,-3 0,-6 -1,-8 2,0 4,0 6,0 2,0 4,0 5,0 0,2 0,5 0,8 0,12 5,22 14,29 1,-2 2,-5 4,-7 0,-2 2,-3 4,-3 1,0 3,1 4,2 0,1 1,3 0,4 0,3 -1,6 -2,9 4,1 8,2 12,2 20,0 36,-16 36,-36 0,-20 -16,-36 -36,-36z"/>
  <path class="fil1" d="M51 97c8,15 34,30 17,94 -1,2 1,4 3,4l2 0c1,0 1,-1 2,-2 4,-9 22,-44 32,-88 1,-4 -4,-6 -6,-2 -4,9 -10,18 -14,24 -1,3 -4,2 -5,0 -5,-7 -14,-23 -26,-34 -2,-3 -7,0 -5,4z"/>
 </g>
</svg>
