<?xml version="1.0" encoding="UTF-8"?>
<!DOCTYPE svg PUBLIC "-//W3C//DTD SVG 1.1//EN" "http://www.w3.org/Graphics/SVG/1.1/DTD/svg11.dtd">
<!-- Creator: CorelDRAW X7 -->
<svg xmlns="http://www.w3.org/2000/svg" xml:space="preserve" width="27.6308mm" height="24.8581mm" version="1.1" style="shape-rendering:geometricPrecision; text-rendering:geometricPrecision; image-rendering:optimizeQuality; fill-rule:evenodd; clip-rule:evenodd"
viewBox="0 0 690 620"
 xmlns:xlink="http://www.w3.org/1999/xlink">
 <defs>
  <style type="text/css">
   <![CDATA[
    .fil0 {fill:#18F260}
   ]]>
  </style>
 </defs>
 <g id="Layer_x0020_1">
  <metadata id="CorelCorpID_0Corel-Layer"/>
  <path class="fil0" d="M560 524c-8,0 -14,7 -14,15l0 67c0,8 6,14 14,14 9,0 15,-6 15,-14l0 -67c0,-8 -6,-15 -15,-15zm93 -243c4,-11 6,-23 6,-35 0,-29 -12,-56 -33,-75 1,-2 1,-3 1,-5 0,-37 -30,-68 -67,-68l0 0c-2,0 -4,0 -5,1 -8,3 -12,11 -9,19l0 1c2,6 8,10 14,10l0 0c2,0 3,-1 5,-1 18,2 32,19 32,38 0,3 0,5 -1,8 -1,5 1,11 6,14 17,14 27,35 27,58 0,11 -2,22 -7,32 -3,6 -2,13 3,18 22,20 35,48 35,79 0,51 -35,94 -84,103l-1 0c-2,0 -4,0 -7,1 -1,0 -3,0 -5,0 -1,0 -2,0 -3,0 0,0 -1,0 -1,0 0,0 0,0 0,0 0,0 -1,0 -2,0 -2,0 -4,0 -6,0 -2,-1 -4,-1 -6,-1l-1 0c-34,-6 -62,-29 -76,-62 36,-43 57,-112 57,-187 0,-128 -60,-229 -137,-229 -52,0 -98,48 -122,125 -2,7 3,16 10,18 8,2 16,-2 19,-10 19,-63 55,-103 93,-103 58,0 107,91 107,199 0,71 -21,138 -54,174 -1,0 -1,0 -1,0 0,1 -1,1 -1,2 0,0 0,0 0,1 -1,0 -1,1 -1,1 0,1 -1,1 -1,1 0,1 0,1 0,2 0,0 0,1 0,1 0,1 0,1 0,2 0,0 0,1 0,1 0,0 0,1 0,2 0,0 0,0 0,1 0,0 0,0 0,1 16,47 55,81 102,89l2 0c2,0 5,1 8,1 2,0 5,0 7,0 0,0 1,0 1,0 1,1 2,1 3,1 0,0 0,0 0,0 1,0 2,0 3,-1l1 0c2,0 5,0 7,0 3,0 6,-1 8,-1l2 0c63,-11 109,-66 109,-132 0,-35 -14,-69 -37,-94zm-205 39c-3,-8 -11,-11 -19,-8l-26 10 0 -31 39 -23c7,-4 9,-13 5,-20 -4,-7 -13,-10 -20,-5l-24 14 0 -55c0,-8 -7,-15 -15,-15 -8,0 -15,7 -15,15l0 35 -18 -8c-7,-3 -16,0 -19,8 -3,7 0,16 8,19l29 13c0,0 0,0 0,0l0 35 -13 -6c-7,-3 -16,0 -19,8 -3,7 0,16 8,19l24 10c0,1 0,1 0,1l0 270c0,8 7,14 15,14 8,0 15,-6 15,-14l0 -252 37 -15c8,-3 11,-12 8,-19zm-157 46l28 0c5,0 10,-3 13,-8 2,-5 2,-11 -2,-16l-69 -93 21 0c6,0 11,-3 14,-8 2,-5 2,-11 -2,-15l-104 -139c-2,-3 -7,-5 -11,-5 -5,0 -9,2 -12,5l-104 139c-3,4 -4,10 -1,15 2,5 7,8 13,8l22 0 -70 93c-3,5 -4,11 -1,16 2,5 7,8 13,8l28 0 -64 84c-3,5 -4,11 -1,16 2,5 7,8 13,8l149 0 0 132c0,8 7,14 15,14 8,0 14,-6 14,-14l0 -145c0,-1 0,-1 0,-1 0,0 0,0 0,-1 0,-8 -6,-14 -14,-14l-135 0 64 -85c3,-5 4,-11 1,-16 -2,-5 -7,-8 -13,-8l-28 0 70 -93c3,-4 4,-10 1,-15 -2,-5 -7,-8 -13,-8l-21 0 74 -99 74 99 -22 0c-6,0 -11,3 -13,8 -3,5 -2,11 1,15l70 93 -28 0c-5,0 -11,3 -13,8 -3,5 -2,11 1,16l64 85 -82 0c-8,0 -14,6 -14,14 0,9 6,15 14,15l112 0c5,0 10,-3 13,-8 2,-5 2,-11 -2,-16l-63 -84z"/>
 </g>
</svg>
