<?xml version="1.0" encoding="UTF-8"?>
<!DOCTYPE svg PUBLIC "-//W3C//DTD SVG 1.1//EN" "http://www.w3.org/Graphics/SVG/1.1/DTD/svg11.dtd">
<!-- Creator: CorelDRAW X7 -->
<svg xmlns="http://www.w3.org/2000/svg" xml:space="preserve" width="177.961mm" height="50.4604mm" version="1.1" style="shape-rendering:geometricPrecision; text-rendering:geometricPrecision; image-rendering:optimizeQuality; fill-rule:evenodd; clip-rule:evenodd"
viewBox="0 0 5108 1448"
 xmlns:xlink="http://www.w3.org/1999/xlink">
 <defs>
  <style type="text/css">
   <![CDATA[
    .fil1 {fill:#723A23}
    .fil0 {fill:#9EBE29}
   ]]>
  </style>
 </defs>
 <g id="Layer_x0020_1">
  <metadata id="CorelCorpID_0Corel-Layer"/>
  <path class="fil0" d="M343 495l96 1 -108 -191 -108 -191 -111 189 -112 189 99 1 -99 167 112 1 0 1 -112 189 103 1 -103 175 150 2c4,-28 7,-57 9,-77 1,-10 9,-17 18,-17 5,0 10,3 14,7l20 24c1,1 2,1 2,1 1,0 2,0 2,-1l32 -31c3,-4 8,-6 12,-6 9,0 17,7 18,16 3,19 8,53 13,85l149 1 -100 -177 100 1 -108 -191 -1 -1 109 1 -96 -169z"/>
  <path class="fil1" d="M147 1092c5,-28 16,-100 20,-140 1,-9 12,-13 18,-5l20 24c4,4 11,5 16,0l31 -31c6,-6 16,-3 18,6 5,37 16,113 21,146 2,6 -3,12 -10,12l-123 0c-7,0 -12,-6 -11,-12z"/>
  <path class="fil0" d="M1433 362c0,-39 -28,-73 -65,-81 27,-26 33,-68 14,-101 -20,-34 -60,-49 -96,-39 9,-35 -6,-74 -39,-94 -34,-20 -77,-12 -103,15 -9,-36 -42,-62 -80,-62 -40,0 -73,27 -82,64 -26,-26 -67,-33 -101,-13 -34,19 -49,60 -38,96 -36,-10 -75,5 -94,39 -20,34 -13,76 15,102 -36,10 -62,42 -62,81 0,39 27,72 64,81 -26,26 -33,68 -14,101 20,34 60,49 97,39 -10,35 5,74 38,94 35,19 77,12 103,-15 0,0 0,0 0,1l6 -36 -95 -164c-3,-5 -3,-12 0,-17 3,-6 9,-9 15,-9 4,0 8,1 11,3l90 70 32 -191c2,-9 9,-15 18,-15 9,0 16,6 18,15l17 96 54 -61c3,-4 8,-6 13,-6 5,0 10,3 14,8 3,4 3,10 1,15l-64 152 26 153c3,-5 5,-11 6,-16 26,26 67,33 101,13 34,-19 49,-60 38,-96 36,10 75,-5 94,-39 20,-34 13,-76 -15,-102 36,-10 63,-42 63,-81z"/>
  <path class="fil1" d="M1191 1003l-82 -474 65 -155c3,-6 -5,-12 -10,-6l-69 77 -20 -117c-2,-9 -14,-9 -15,0l-36 207 -104 -79c-6,-5 -14,2 -10,9l97 167 -64 371c-2,17 11,33 28,33l192 0c18,0 31,-16 28,-33z"/>
  <path class="fil1" d="M2714 1058l72 -235c3,-13 18,-12 21,0l67 236c6,23 -8,48 -29,48l-103 0c-21,0 -35,-25 -28,-49z"/>
  <path class="fil0" d="M2911 879c169,16 220,-87 220,-87 -109,60 -183,28 -234,-34 175,21 226,-85 226,-85 -114,63 -190,22 -240,-48 173,24 224,-79 224,-79 -114,62 -187,17 -235,-56 168,27 217,-73 217,-73 -109,60 -178,15 -223,-55 162,27 209,-70 209,-70 -237,132 -281,-265 -281,-265 0,0 -44,397 -282,265 0,0 48,97 209,70 -44,70 -114,115 -222,55 0,0 49,100 216,73 -47,73 -121,118 -234,56 0,0 51,103 224,79 -50,70 -126,111 -241,48 0,0 52,106 227,85 -51,62 -126,94 -234,34 0,0 50,103 220,87 -57,67 -139,100 -257,35 0,0 81,165 374,68 293,97 374,-68 374,-68 -118,65 -200,32 -257,-35z"/>
  <path class="fil0" d="M4940 237c0,0 -73,113 0,139 0,0 69,-16 0,-139z"/>
  <path class="fil0" d="M4768 355c0,0 88,102 133,40 0,0 5,-70 -133,-40z"/>
  <path class="fil0" d="M4675 158c0,0 -73,112 0,138 0,0 69,-16 0,-138z"/>
  <path class="fil0" d="M4535 340c0,0 119,62 138,-12 0,0 -22,-67 -138,12z"/>
  <path class="fil0" d="M4525 181c0,0 -72,113 0,139 0,0 69,-16 0,-139z"/>
  <path class="fil0" d="M4396 182c0,0 1,134 76,116 0,0 49,-51 -76,-116z"/>
  <path class="fil0" d="M4373 333c0,0 104,85 138,16 0,0 -8,-70 -138,-16z"/>
  <path class="fil0" d="M4442 501c0,0 126,-45 84,-109 0,0 -64,-30 -84,109z"/>
  <path class="fil0" d="M4814 282c0,0 -132,-27 -129,50 0,0 39,58 129,-50z"/>
  <path class="fil0" d="M5075 210c0,0 -112,70 -58,123 0,0 68,14 58,-123z"/>
  <path class="fil0" d="M5108 405c0,0 -105,-84 -138,-14 0,0 9,70 138,14l0 0z"/>
  <path class="fil0" d="M5019 567c0,0 22,-132 -55,-127 0,0 -57,42 55,127z"/>
  <path class="fil1" d="M4935 400l-227 192 -33 -243c0,-5 -7,-4 -7,0l-16 139 -109 -137c-8,-9 -23,0 -18,11l113 243 -52 452c-1,8 5,14 13,14l159 0c8,0 14,-7 13,-14l-48 -353 228 -288c9,-10 -5,-24 -16,-16z"/>
  <path class="fil1" d="M2002 507l-57 515c-1,11 7,21 18,21l99 0c11,0 19,-9 18,-20l-42 -516c-2,-22 -34,-22 -36,0z"/>
  <path class="fil0" d="M2020 72c0,0 -107,212 0,260 0,0 109,-26 0,-260z"/>
  <path class="fil0" d="M1831 342c69,27 157,105 177,124 14,-56 17,-211 -359,-230 0,0 118,384 342,256 1,-1 1,-1 2,-1 -40,-62 -162,-149 -162,-149z"/>
  <path class="fil0" d="M2036 463c37,-37 134,-124 251,-149 0,0 -182,79 -232,178 224,126 341,-256 341,-256 -370,19 -372,169 -360,227z"/>
  <path class="fil0" d="M2701 1367c0,45 -36,81 -81,81 -46,0 -82,-36 -82,-81 0,-46 36,-82 82,-82 45,0 81,36 81,82z"/>
  <path class="fil0" d="M4008 585c6,0 13,4 16,11 2,6 1,13 -4,18 -10,12 -24,27 -39,46 3,-1 5,-2 7,-3 0,2 0,3 0,5 0,37 30,67 67,67 37,0 67,-30 67,-67 0,-19 -7,-35 -19,-48 12,-12 19,-29 19,-47 0,-37 -30,-67 -67,-67 -25,0 -48,14 -59,36 -9,-6 -20,-8 -32,-8 -37,0 -67,30 -67,67 0,20 9,39 24,51 23,-20 49,-40 77,-58 3,-2 6,-3 10,-3z"/>
  <path class="fil0" d="M4249 290c-8,0 -15,1 -22,3 -5,-11 -13,-21 -23,-28 1,-4 1,-8 1,-12 0,-37 -30,-67 -67,-67 -37,0 -67,30 -67,67 0,1 0,3 0,4 -7,-3 -15,-4 -24,-4 -37,0 -67,30 -67,67 0,14 5,28 13,39 -16,4 -30,14 -39,27 -3,-3 -7,-6 -11,-9 1,-5 2,-11 2,-17 0,-29 -23,-53 -53,-53 -26,0 -48,19 -52,45 -9,-9 -21,-14 -34,-14 2,-5 3,-12 3,-18 0,-13 -4,-25 -12,-34 11,-3 21,-10 29,-19 12,14 30,23 50,23 37,0 67,-31 67,-68 0,-37 -30,-67 -67,-67 0,-26 -16,-49 -38,-60 0,-2 0,-5 0,-7 0,-37 -30,-67 -67,-67 -37,0 -67,30 -67,67 -37,0 -67,30 -67,67 0,11 2,22 7,31 -2,0 -5,0 -7,0 -37,0 -68,30 -68,67 0,37 31,67 68,67 12,0 23,-3 33,-9 10,5 21,9 33,9 0,0 0,0 0,0 0,2 0,4 1,6 -22,7 -37,27 -37,51 0,23 14,43 35,50 -2,5 -3,11 -3,17 0,4 0,7 1,11 -9,1 -17,4 -25,8 -10,-23 -34,-39 -61,-39 -6,0 -11,1 -17,2 0,-1 0,-2 0,-2 0,-17 -7,-31 -19,-41 1,-4 2,-8 2,-12 0,-29 -24,-53 -53,-53 -5,0 -9,0 -13,1 1,-5 2,-10 2,-16 0,-21 -10,-39 -25,-52 4,-8 7,-18 7,-29 0,-37 -30,-67 -67,-67 -30,0 -54,19 -64,45 -11,-9 -25,-14 -41,-14 -37,0 -67,30 -67,67 0,25 14,47 34,59 -10,11 -17,27 -17,45 0,24 13,45 32,57 -12,7 -22,19 -27,32 -7,-2 -15,-3 -22,-3 -37,0 -67,30 -67,67 0,37 30,67 67,67 6,0 12,-1 17,-2 0,0 0,1 0,2 0,37 30,67 67,67 37,0 67,-30 67,-67 0,-22 -10,-41 -26,-53 16,-12 26,-32 26,-53 0,-8 -1,-15 -3,-21 6,2 13,4 19,4 9,17 27,29 48,29 15,0 29,-7 38,-17 9,7 20,11 32,11 2,0 3,0 4,0 -1,4 -1,9 -1,14 0,3 0,5 0,8 -9,-5 -20,-8 -31,-8 -37,0 -67,30 -67,67 0,37 30,67 67,67 13,0 26,-4 36,-11 10,25 34,42 62,42 8,0 16,-2 24,-5 -12,-42 -24,-79 -37,-106 -2,-5 -2,-11 1,-15 3,-5 9,-8 15,-8 6,0 11,3 14,8 17,27 41,69 66,124 4,1 8,2 12,2 26,0 49,-15 60,-37 8,4 18,6 28,6 37,0 67,-30 67,-67 0,-37 -30,-67 -67,-67 -9,0 -18,2 -26,5 0,-1 0,-1 -1,-2 21,-8 35,-27 35,-50 2,0 4,0 6,0 0,0 0,0 0,0 0,29 24,53 53,53 18,0 33,-8 43,-21 3,0 7,1 10,1 15,0 28,-6 37,-16 12,18 33,30 56,30 31,0 57,-21 65,-50 11,8 25,13 40,13 2,0 4,0 7,0 11,22 33,37 60,37 37,0 67,-30 67,-67 37,0 67,-30 67,-67 0,-37 -30,-67 -67,-67z"/>
  <path class="fil1" d="M4004 597c-134,85 -206,201 -241,273 -43,-160 -105,-276 -140,-335 -4,-6 -16,-1 -12,6 53,115 103,417 120,519 3,22 22,38 44,38l1 0c16,0 28,-14 26,-29 -4,-31 -8,-60 -14,-88 38,-154 163,-306 225,-373 6,-7 -2,-16 -9,-11z"/>
 </g>
</svg>
