<?xml version="1.0" encoding="UTF-8"?>
<!DOCTYPE svg PUBLIC "-//W3C//DTD SVG 1.1//EN" "http://www.w3.org/Graphics/SVG/1.1/DTD/svg11.dtd">
<!-- Creator: CorelDRAW X7 -->
<svg xmlns="http://www.w3.org/2000/svg" xml:space="preserve" width="10.8199mm" height="24.858mm" version="1.1" style="shape-rendering:geometricPrecision; text-rendering:geometricPrecision; image-rendering:optimizeQuality; fill-rule:evenodd; clip-rule:evenodd"
viewBox="0 0 29 67"
 xmlns:xlink="http://www.w3.org/1999/xlink">
 <defs>
  <style type="text/css">
   <![CDATA[
    .fil0 {fill:white}
   ]]>
  </style>
 </defs>
 <g id="Layer_x0020_1">
  <metadata id="CorelCorpID_0Corel-Layer"/>
  <path class="fil0" d="M15 0c-9,0 -15,21 -15,35 0,17 8,21 13,21l0 10c0,0 1,1 2,1 0,0 1,-1 1,-1l0 -11c0,-1 -1,-2 -1,-2 -10,0 -12,-10 -12,-18 0,-15 6,-32 12,-32 5,0 11,17 11,32 0,9 -2,15 -7,17 -1,1 -1,2 -1,2 1,1 2,1 2,1 6,-3 9,-9 9,-20 0,-14 -5,-35 -14,-35z"/>
 </g>
</svg>
