<?xml version="1.0" encoding="UTF-8"?>
<!DOCTYPE svg PUBLIC "-//W3C//DTD SVG 1.1//EN" "http://www.w3.org/Graphics/SVG/1.1/DTD/svg11.dtd">
<!-- Creator: CorelDRAW X7 -->
<svg xmlns="http://www.w3.org/2000/svg" xml:space="preserve" width="15.5604mm" height="24.7396mm" version="1.1" style="shape-rendering:geometricPrecision; text-rendering:geometricPrecision; image-rendering:optimizeQuality; fill-rule:evenodd; clip-rule:evenodd"
viewBox="0 0 445 708"
 xmlns:xlink="http://www.w3.org/1999/xlink">
 <defs>
  <style type="text/css">
   <![CDATA[
    .fil0 {fill:#18F260}
   ]]>
  </style>
 </defs>
 <g id="Layer_x0020_1">
  <metadata id="CorelCorpID_0Corel-Layer"/>
  <path class="fil0" d="M388 197c-32,0 -58,26 -58,58l0 127 -55 0c-31,0 -57,26 -57,58 0,28 20,51 46,56l0 178 -68 0 0 -606c0,-19 15,-34 34,-34 19,0 34,15 34,34l0 277c0,9 7,17 17,17 9,0 17,-8 17,-17l0 -277c0,-38 -31,-68 -68,-68 -37,0 -68,30 -68,68l0 623c0,9 8,17 17,17l102 0c9,0 17,-8 17,-17l0 -210c0,-10 -8,-17 -17,-17l-6 0c-13,0 -23,-11 -23,-24 0,-13 10,-24 23,-24l63 0c14,0 26,-12 26,-26l0 -135c0,-13 11,-24 24,-24 13,0 23,11 23,24l0 135c0,41 -33,74 -73,74 -10,0 -17,7 -17,17 0,9 7,17 17,17 59,0 107,-49 107,-108l0 -135c0,-32 -26,-58 -57,-58zm-280 110l22 0c10,0 17,-7 17,-17 0,-9 -7,-17 -17,-17l-15 0 0 -127c0,-32 -26,-58 -57,-58 -32,0 -58,26 -58,58l0 135c0,59 48,108 108,108l22 0c10,0 17,-8 17,-17 0,-10 -7,-17 -17,-17l-22 0c-41,0 -74,-33 -74,-74l0 -135c0,-13 11,-24 24,-24 13,0 23,11 23,24l0 135c0,15 12,26 27,26z"/>
 </g>
</svg>
