<?xml version="1.0" encoding="UTF-8"?>
<!DOCTYPE svg PUBLIC "-//W3C//DTD SVG 1.1//EN" "http://www.w3.org/Graphics/SVG/1.1/DTD/svg11.dtd">
<!-- Creator: CorelDRAW X7 -->
<svg xmlns="http://www.w3.org/2000/svg" xml:space="preserve" width="11.9811mm" height="24.858mm" version="1.1" style="shape-rendering:geometricPrecision; text-rendering:geometricPrecision; image-rendering:optimizeQuality; fill-rule:evenodd; clip-rule:evenodd"
viewBox="0 0 374 777"
 xmlns:xlink="http://www.w3.org/1999/xlink">
 <defs>
  <style type="text/css">
   <![CDATA[
    .fil0 {fill:#18F260}
   ]]>
  </style>
 </defs>
 <g id="Layer_x0020_1">
  <metadata id="CorelCorpID_0Corel-Layer"/>
  <path class="fil0" d="M321 288c9,-19 13,-39 13,-60 0,-42 -19,-83 -51,-111 1,-6 2,-13 2,-19 0,-54 -44,-98 -98,-98 -54,0 -97,44 -97,98 0,6 0,13 2,19 -33,28 -52,69 -52,111 0,21 5,41 13,60 -34,35 -53,82 -53,130 0,97 74,177 169,187l0 153c0,10 8,19 18,19 10,0 19,-9 19,-19l0 -171c0,-10 -9,-18 -19,-18 -83,0 -150,-68 -150,-151 0,-43 19,-84 51,-112 7,-6 8,-16 4,-23 -10,-17 -15,-36 -15,-55 0,-35 18,-68 46,-89 7,-5 10,-13 7,-21 -2,-7 -3,-14 -3,-20 0,-34 27,-61 60,-61 34,0 61,27 61,61 0,6 -1,13 -4,20 -3,8 0,16 7,21 29,21 46,54 46,89 0,19 -5,38 -14,55 -5,7 -3,17 3,23 33,28 51,69 51,112 0,63 -39,120 -98,141 -10,4 -14,14 -11,24 4,10 14,15 24,11 73,-27 122,-98 122,-176 0,-48 -19,-95 -53,-130z"/>
 </g>
</svg>
