<?xml version="1.0" encoding="UTF-8"?>
<!DOCTYPE svg PUBLIC "-//W3C//DTD SVG 1.1//EN" "http://www.w3.org/Graphics/SVG/1.1/DTD/svg11.dtd">
<!-- Creator: CorelDRAW X7 -->
<svg xmlns="http://www.w3.org/2000/svg" xml:space="preserve" width="25.504mm" height="24.858mm" version="1.1" style="shape-rendering:geometricPrecision; text-rendering:geometricPrecision; image-rendering:optimizeQuality; fill-rule:evenodd; clip-rule:evenodd"
viewBox="0 0 2657 2590"
 xmlns:xlink="http://www.w3.org/1999/xlink">
 <defs>
  <style type="text/css">
   <![CDATA[
    .fil0 {fill:#18F260}
   ]]>
  </style>
 </defs>
 <g id="Layer_x0020_1">
  <metadata id="CorelCorpID_0Corel-Layer"/>
  <path class="fil0" d="M1475 1933c-28,-19 -67,-10 -85,18 -11,18 -12,40 -4,58 2,11 9,61 9,235 0,218 -11,264 -12,266 1,-4 2,-6 2,-6l114 49c16,-38 19,-189 19,-309 0,-284 -15,-294 -43,-311zm-90 -582c0,0 -1,-1 -2,-6 1,2 12,48 12,266 0,218 -11,265 -12,267 1,-5 2,-6 2,-6l114 48c16,-38 19,-188 19,-309 0,-120 -3,-270 -19,-308l-114 48zm-108 528c-1,-5 -12,-59 -12,-268 0,-209 11,-263 12,-267 5,-19 2,-38 -10,-53 -2,-3 -4,-6 -7,-8 18,-17 24,-44 15,-67 -2,-9 -10,-58 -10,-237 0,-209 11,-263 12,-268 5,-18 2,-38 -10,-53 -2,-3 -4,-5 -7,-8 18,-17 24,-44 15,-67 -2,-8 -10,-57 -10,-237 0,-209 11,-263 12,-268 5,-18 2,-38 -10,-53 -11,-16 -30,-25 -49,-25l-370 0c-23,0 -46,7 -57,27 -10,20 -12,38 -1,57 3,14 11,75 11,262 0,174 -7,224 -9,235 -8,18 -7,40 4,58 12,18 32,28 52,28 11,0 23,-3 33,-9 28,-18 43,-27 43,-312 0,-74 -1,-159 -6,-223l230 0c-3,46 -6,116 -6,223 0,217 11,268 20,287l-129 0c-34,0 -62,27 -62,61 0,34 28,62 62,62l115 0c-3,46 -6,116 -6,223 0,217 11,268 20,286l-129 0c-34,0 -62,28 -62,62 0,34 28,62 62,62l115 0c-3,45 -6,116 -6,222 0,231 13,291 17,303 1,3 2,6 3,9l-129 0c-34,0 -62,27 -62,62 0,34 28,61 62,61l114 0c-3,43 -5,105 -5,198 0,231 13,290 17,303 8,26 32,43 59,43 6,0 12,-1 18,-3 32,-10 50,-43 41,-75 -1,-5 -12,-59 -12,-268 0,-180 8,-229 10,-237 7,-17 6,-35 -3,-51 -3,-6 -7,-11 -12,-16 16,-15 23,-38 17,-61zm1323 -227c-266,-20 -459,23 -572,128 -94,86 -96,182 -96,193 0,34 27,60 60,61l1 0c34,0 61,-27 62,-60 0,-2 3,-56 60,-107 51,-45 154,-96 357,-97 -61,68 -156,152 -264,176 -13,3 -26,5 -38,6 -34,3 -59,32 -57,66 3,33 30,57 62,57 1,0 3,0 5,0 18,-1 36,-4 54,-8 238,-53 406,-309 414,-320 11,-18 13,-41 3,-61 -10,-20 -29,-32 -51,-34zm-729 227c-1,-5 -12,-59 -12,-268 0,-209 11,-263 12,-267 5,-19 2,-38 -9,-53 -3,-3 -5,-6 -8,-8 18,-17 24,-44 15,-67 -2,-9 -10,-58 -10,-237 0,-209 11,-263 12,-268 5,-18 2,-38 -9,-53 -12,-16 -31,-25 -50,-25l-370 0c-23,0 -46,7 -57,27 -10,20 -12,38 -1,56 3,15 11,75 11,263 0,174 -7,223 -9,235 -8,18 -7,39 4,57 12,19 32,29 52,29 11,0 23,-3 33,-10 28,-17 43,-27 43,-311 0,-74 -1,-159 -6,-223l230 0c-3,46 -6,116 -6,223 0,217 11,268 20,286l-129 0c-34,0 -62,28 -62,62 0,34 28,62 62,62l115 0c-3,45 -6,116 -6,222 0,231 13,291 17,303 1,3 2,6 3,9l-129 0c-34,0 -62,27 -62,62 0,34 28,61 62,61l114 0c-3,43 -5,105 -5,198 0,231 13,290 17,303 8,26 33,43 59,43 6,0 12,-1 18,-3 32,-10 50,-43 41,-75 -1,-5 -12,-59 -12,-268 0,-180 9,-229 10,-237 7,-17 6,-35 -3,-51 -3,-6 -7,-11 -12,-16 16,-15 23,-38 17,-61zm-1080 -1161c0,0 -1,-1 -2,-5 1,1 12,48 12,266 0,174 -7,223 -9,235 -8,18 -7,39 4,57 12,19 32,29 52,29 11,0 23,-3 33,-10 28,-17 43,-27 43,-311 0,-120 -3,-271 -19,-309l-114 48zm-162 1062c-113,-105 -305,-148 -572,-128 -22,2 -41,14 -51,34 -9,20 -8,43 4,61 7,11 176,267 413,320 18,4 37,7 55,8 1,0 3,0 5,0 32,0 59,-24 61,-57 3,-34 -23,-63 -57,-66 -12,-1 -25,-3 -37,-6 -109,-24 -204,-108 -265,-176 203,1 306,52 357,97 57,50 60,103 60,107 1,34 28,61 62,61 34,0 62,-28 62,-62 0,-11 -3,-107 -97,-193zm1363 -421l1 0c34,0 61,-27 62,-60 0,-2 3,-56 60,-107 51,-46 154,-96 357,-97 -61,68 -156,152 -264,176 -13,3 -26,5 -38,6 -34,2 -59,32 -57,66 3,32 30,57 62,57 1,0 3,0 5,0 18,-2 36,-4 54,-8 238,-53 406,-309 414,-320 11,-19 13,-42 3,-61 -10,-20 -29,-33 -51,-34 -266,-21 -459,22 -572,127 -94,87 -96,183 -96,194 0,33 27,60 60,61zm-1363 -255c-113,-105 -305,-147 -572,-127 -22,1 -41,14 -51,34 -9,19 -8,42 4,61 7,11 176,267 413,320 18,4 37,6 55,8 1,0 3,0 5,0 32,0 59,-25 61,-57 3,-34 -23,-64 -57,-66 -12,-1 -25,-3 -37,-6 -109,-24 -204,-108 -265,-176 203,1 306,51 357,97 57,50 60,103 60,107 1,33 28,61 62,61 34,0 62,-28 62,-62 0,-11 -3,-107 -97,-194zm0 -675c-113,-105 -305,-148 -572,-128 -22,2 -41,15 -51,34 -9,20 -8,43 4,61 7,11 176,268 413,320 18,4 37,7 55,8 1,1 3,1 5,1 32,0 59,-25 61,-57 3,-34 -23,-64 -57,-66 -12,-1 -25,-3 -37,-6 -109,-24 -204,-109 -265,-176 203,1 306,51 357,97 57,50 60,103 60,107 1,33 28,60 62,60 34,0 62,-27 62,-61 0,-11 -3,-107 -97,-194zm252 1504c-28,-19 -67,-10 -85,18 -11,18 -12,40 -5,58 3,11 10,61 10,235 0,218 -11,264 -12,266 1,-4 2,-6 2,-6l114 49c16,-38 19,-189 19,-309 0,-284 -15,-294 -43,-311zm-90 -582c0,0 -1,-1 -2,-6 1,2 12,48 12,266 0,218 -11,265 -12,267 1,-5 2,-6 2,-6l114 48c16,-38 19,-188 19,-309 0,-120 -3,-270 -19,-308l-114 48z"/>
 </g>
</svg>
