<?xml version="1.0" encoding="UTF-8"?>
<!DOCTYPE svg PUBLIC "-//W3C//DTD SVG 1.1//EN" "http://www.w3.org/Graphics/SVG/1.1/DTD/svg11.dtd">
<!-- Creator: CorelDRAW X7 -->
<svg xmlns="http://www.w3.org/2000/svg" xml:space="preserve" width="29.5107mm" height="29.8811mm" version="1.1" style="shape-rendering:geometricPrecision; text-rendering:geometricPrecision; image-rendering:optimizeQuality; fill-rule:evenodd; clip-rule:evenodd"
viewBox="0 0 152 154"
 xmlns:xlink="http://www.w3.org/1999/xlink">
 <defs>
  <style type="text/css">
   <![CDATA[
    .fil1 {fill:#723A23}
    .fil0 {fill:#9EBE29}
   ]]>
  </style>
 </defs>
 <g id="Layer_x0020_1">
  <metadata id="CorelCorpID_0Corel-Layer"/>
  <path class="fil0" d="M129 44c0,-2 1,-4 1,-7 0,-15 -12,-27 -27,-27 -2,0 -3,0 -5,1 -5,-7 -13,-11 -21,-11 -11,0 -20,6 -24,14 -1,0 -2,0 -3,0 -15,0 -28,12 -28,27 0,1 0,2 1,4 -13,2 -23,13 -23,26 0,15 12,27 27,27 11,0 20,-6 25,-15 -2,-1 -5,-2 -6,-3 -2,-1 -3,-3 -2,-4 0,-2 1,-3 3,-3 2,0 5,0 7,0 4,1 9,2 11,2 0,-2 0,-5 -2,-10 0,-2 -1,-4 -1,-5 0,-2 0,-3 1,-4 0,-1 2,-1 3,-1 1,0 2,0 3,1 0,1 1,1 2,2 2,3 4,5 5,6 2,-3 5,-5 8,-7 3,-2 6,-3 9,-5 1,0 1,0 2,0 1,0 2,1 3,2 0,1 0,3 -1,4 -1,1 -2,3 -3,5 -4,7 -6,14 -6,18 2,-1 5,-2 11,-3 1,0 2,0 3,0 0,0 0,0 1,0 1,0 3,1 3,3 1,1 0,3 -1,4 -1,1 -1,1 -2,2 5,7 13,11 22,11 15,0 27,-12 27,-27 0,-13 -10,-25 -23,-27z"/>
  <path class="fil1" d="M47 75c-1,0 -2,2 -1,3 6,2 16,9 17,23 3,22 -12,52 -6,53 7,0 44,1 41,-4 -3,-6 -24,-45 6,-66 1,-2 0,-4 -2,-4 -5,1 -13,2 -15,4 -4,4 0,-17 9,-28 0,-1 -1,-2 -2,-2 -6,3 -15,8 -17,14 0,0 -4,-5 -10,-11 -1,-1 -3,0 -3,2 2,6 4,16 3,19 0,0 -12,-3 -20,-3z"/>
 </g>
</svg>
