<?xml version="1.0" encoding="UTF-8"?>
<!DOCTYPE svg PUBLIC "-//W3C//DTD SVG 1.1//EN" "http://www.w3.org/Graphics/SVG/1.1/DTD/svg11.dtd">
<!-- Creator: CorelDRAW X7 -->
<svg xmlns="http://www.w3.org/2000/svg" xml:space="preserve" width="25.4544mm" height="31.0161mm" version="1.1" style="shape-rendering:geometricPrecision; text-rendering:geometricPrecision; image-rendering:optimizeQuality; fill-rule:evenodd; clip-rule:evenodd"
viewBox="0 0 129 157"
 xmlns:xlink="http://www.w3.org/1999/xlink">
 <defs>
  <style type="text/css">
   <![CDATA[
    .fil1 {fill:#723A23}
    .fil0 {fill:#9EBE29}
   ]]>
  </style>
 </defs>
 <g id="Layer_x0020_1">
  <metadata id="CorelCorpID_0Corel-Layer"/>
  <path class="fil0" d="M127 135l-40 -30c0,0 0,0 0,-1l24 0c3,0 4,-3 2,-5l-29 -31c0,0 0,0 0,0l12 -1c4,0 7,-4 5,-8l-17 -28 -17 -29c0,-1 -1,-2 -3,-2 -1,0 -2,1 -3,2l-16 29 -17 28c-2,4 1,8 5,8l12 1c0,0 0,0 -1,0l-28 31c-2,2 -1,5 2,5l24 0c0,1 -1,1 -1,1l-40 30c-2,2 -1,6 3,6l48 0c1,-5 2,-10 2,-15 0,-2 2,-4 4,-4 1,0 2,1 3,2 2,1 3,3 4,5 1,-2 2,-4 4,-5 1,-1 2,-2 3,-2 2,0 4,2 4,4 0,4 1,10 2,15l47 0c3,0 5,-4 2,-6z"/>
  <path class="fil1" d="M51 154c2,-5 5,-18 5,-27 0,-2 2,-3 3,-2 2,1 3,3 4,6 1,1 2,1 3,0 1,-2 3,-4 5,-6 1,-1 3,0 3,2 0,6 2,20 3,27 1,1 0,3 -1,3l-23 0c-1,0 -2,-2 -2,-3z"/>
 </g>
</svg>
