<?xml version="1.0" encoding="UTF-8"?>
<!DOCTYPE svg PUBLIC "-//W3C//DTD SVG 1.1//EN" "http://www.w3.org/Graphics/SVG/1.1/DTD/svg11.dtd">
<!-- Creator: CorelDRAW X7 -->
<svg xmlns="http://www.w3.org/2000/svg" xml:space="preserve" width="20.7586mm" height="31.0161mm" version="1.1" style="shape-rendering:geometricPrecision; text-rendering:geometricPrecision; image-rendering:optimizeQuality; fill-rule:evenodd; clip-rule:evenodd"
viewBox="0 0 69 103"
 xmlns:xlink="http://www.w3.org/1999/xlink">
 <defs>
  <style type="text/css">
   <![CDATA[
    .fil1 {fill:#723A23}
    .fil0 {fill:#9EBE29}
   ]]>
  </style>
 </defs>
 <g id="Layer_x0020_1">
  <metadata id="CorelCorpID_0Corel-Layer"/>
  <path class="fil0" d="M41 4c-3,-5 -11,-5 -15,0 -16,26 -50,86 0,92 2,0 3,-1 3,-3 2,-20 -1,-33 -10,-39 -1,-1 -2,-2 -2,-4 0,-1 1,-2 3,-2 0,0 1,0 3,1 2,1 5,3 9,6 1,1 3,1 4,-1 2,-2 4,-5 7,-7 1,0 1,-1 2,-1 1,0 2,1 2,2 1,0 1,1 0,2 0,2 -1,4 -3,6 -3,6 -7,13 -6,37 0,2 2,3 3,3 53,-5 17,-67 0,-92z"/>
  <path class="fil1" d="M30 101c1,-7 6,-38 -10,-48 -1,-1 -3,-4 2,-3 3,1 7,5 12,9 0,1 1,1 1,0 1,-2 5,-7 9,-11 1,0 2,0 2,1 -4,10 -12,12 -9,53 0,1 -1,1 -1,1l-4 0c-1,0 -2,-1 -2,-2z"/>
 </g>
</svg>
