<?xml version="1.0" encoding="UTF-8"?>
<!DOCTYPE svg PUBLIC "-//W3C//DTD SVG 1.1//EN" "http://www.w3.org/Graphics/SVG/1.1/DTD/svg11.dtd">
<!-- Creator: CorelDRAW X7 -->
<svg xmlns="http://www.w3.org/2000/svg" xml:space="preserve" width="16.162mm" height="24.8581mm" version="1.1" style="shape-rendering:geometricPrecision; text-rendering:geometricPrecision; image-rendering:optimizeQuality; fill-rule:evenodd; clip-rule:evenodd"
viewBox="0 0 213 327"
 xmlns:xlink="http://www.w3.org/1999/xlink">
 <defs>
  <style type="text/css">
   <![CDATA[
    .fil0 {fill:#18F260}
   ]]>
  </style>
 </defs>
 <g id="Layer_x0020_1">
  <metadata id="CorelCorpID_0Corel-Layer"/>
  <path class="fil0" d="M82 204c0,-5 -3,-8 -8,-8l-15 0c-4,0 -8,3 -8,8 0,4 4,8 8,8l15 0c5,0 8,-4 8,-8zm-23 18c-4,0 -8,4 -8,8 0,5 4,8 8,8l4 0c5,0 8,-3 8,-8 0,-4 -3,-8 -8,-8l-4 0zm74 -17l29 0c4,0 8,-4 8,-8 0,-4 -4,-8 -8,-8l-29 0c-4,0 -8,4 -8,8 0,4 4,8 8,8zm-58 -36l-16 0c-4,0 -8,4 -8,8 0,5 4,8 8,8l16 0c4,0 8,-3 8,-8 0,-4 -4,-8 -8,-8zm-16 -10l9 0c5,0 8,-4 8,-8 0,-5 -3,-8 -8,-8l-9 0c-4,0 -8,3 -8,8 0,4 4,8 8,8zm74 8l41 0c4,0 8,-4 8,-8 0,-4 -4,-8 -8,-8l-41 0c-4,0 -8,4 -8,8 0,4 4,8 8,8zm0 -167c-40,0 -74,49 -79,110 0,0 0,0 0,0 -30,0 -54,35 -54,78 0,40 20,73 46,78l0 53c0,5 4,8 8,8 4,0 8,-3 8,-8l0 -53c26,-5 46,-38 46,-78 0,-14 -2,-28 -8,-40 -1,-4 -6,-6 -10,-4 -4,1 -6,6 -4,10 4,10 7,22 7,34 0,34 -18,63 -39,63 -21,0 -38,-29 -38,-63 0,-33 17,-62 38,-62 2,0 4,0 6,1 4,1 8,-2 9,-6 0,0 0,-1 0,-1 0,-1 0,-1 0,-2 2,-55 31,-102 64,-102 35,0 64,50 64,109 0,59 -29,110 -64,110 -5,0 -10,-2 -15,-4 -4,-2 -9,0 -11,4 -1,4 0,9 4,10 5,2 10,4 14,5l0 69c0,5 4,8 8,8 4,0 8,-3 8,-8l0 -69c41,-6 72,-59 72,-125 0,-70 -35,-125 -80,-125zm0 129l44 0c4,0 8,-4 8,-8 0,-4 -4,-8 -8,-8l-44 0c-4,0 -8,4 -8,8 0,4 4,8 8,8zm0 -76l23 0c4,0 8,-3 8,-8 0,-4 -4,-7 -8,-7l-23 0c-4,0 -8,3 -8,7 0,5 4,8 8,8zm0 38l39 0c5,0 8,-3 8,-8 0,-4 -3,-8 -8,-8l-39 0c-4,0 -8,4 -8,8 0,5 4,8 8,8z"/>
 </g>
</svg>
