<?xml version="1.0" encoding="UTF-8"?>
<!DOCTYPE svg PUBLIC "-//W3C//DTD SVG 1.1//EN" "http://www.w3.org/Graphics/SVG/1.1/DTD/svg11.dtd">
<!-- Creator: CorelDRAW X7 -->
<svg xmlns="http://www.w3.org/2000/svg" xml:space="preserve" width="18.1305mm" height="24.858mm" version="1.1" style="shape-rendering:geometricPrecision; text-rendering:geometricPrecision; image-rendering:optimizeQuality; fill-rule:evenodd; clip-rule:evenodd"
viewBox="0 0 274 376"
 xmlns:xlink="http://www.w3.org/1999/xlink">
 <defs>
  <style type="text/css">
   <![CDATA[
    .fil0 {fill:#18F260}
   ]]>
  </style>
 </defs>
 <g id="Layer_x0020_1">
  <metadata id="CorelCorpID_0Corel-Layer"/>
  <path class="fil0" d="M132 137c2,1 4,1 5,1 2,0 4,0 5,-1l15 -10c5,-3 6,-9 3,-13 -3,-4 -8,-5 -13,-2l-10 7 -10 -7c-4,-3 -10,-2 -12,2 -3,4 -2,10 2,13l15 10zm-35 67c-3,4 -1,9 3,12l33 20c1,1 3,2 4,2 2,0 4,-1 5,-2l33 -20c4,-3 5,-8 3,-12 -3,-5 -9,-6 -13,-3l-28 17 -28 -17c-4,-3 -9,-2 -12,3zm176 84l-53 -71 27 0c3,0 6,-2 8,-5 1,-3 1,-6 -1,-9l-58 -77 22 0c4,0 7,-2 8,-5 2,-3 2,-7 0,-9l-82 -108c-1,-3 -4,-4 -7,-4 -3,0 -5,1 -7,4l-81 108c-2,2 -2,6 -1,9 2,3 5,5 8,5l22 0 -57 77c-2,3 -3,6 -1,9 1,3 4,5 8,5l27 0 -53 71c-2,2 -3,6 -1,9 1,3 5,5 8,5l119 0 0 65c0,5 4,9 9,9 5,0 9,-4 9,-9l0 -74c0,-5 -4,-9 -9,-9l-110 0 53 -70c2,-3 2,-7 1,-10 -2,-3 -5,-5 -8,-5l-27 0 57 -77c2,-2 3,-6 1,-9 -1,-3 -4,-5 -8,-5l-22 0 63 -84 64 84 -23 0c-3,0 -6,2 -8,5 -1,3 -1,7 1,9l58 77 -27 0c-4,0 -7,2 -8,5 -2,3 -1,7 1,10l53 70 -83 0c-5,0 -9,4 -9,9 0,5 4,9 9,9l101 0c3,0 6,-2 8,-5 1,-3 1,-7 -1,-9z"/>
 </g>
</svg>
