<?xml version="1.0" encoding="UTF-8"?>
<!DOCTYPE svg PUBLIC "-//W3C//DTD SVG 1.1//EN" "http://www.w3.org/Graphics/SVG/1.1/DTD/svg11.dtd">
<!-- Creator: CorelDRAW X7 -->
<svg xmlns="http://www.w3.org/2000/svg" xml:space="preserve" width="24.3122mm" height="24.8581mm" version="1.1" style="shape-rendering:geometricPrecision; text-rendering:geometricPrecision; image-rendering:optimizeQuality; fill-rule:evenodd; clip-rule:evenodd"
viewBox="0 0 197 202"
 xmlns:xlink="http://www.w3.org/1999/xlink">
 <defs>
  <style type="text/css">
   <![CDATA[
    .fil0 {fill:#A514D1}
   ]]>
  </style>
 </defs>
 <g id="Layer_x0020_1">
  <metadata id="CorelCorpID_0Corel-Layer"/>
  <path class="fil0" d="M134 94c1,-3 0,-5 -3,-6 -2,-1 -5,0 -6,3 -4,12 -17,21 -31,21 -11,0 -21,-6 -28,-14 -1,-2 -4,-3 -6,-1 -2,1 -3,4 -1,6 8,12 21,18 35,18 18,0 34,-11 40,-27zm45 -42c0,-1 0,-2 0,-4 0,-19 -16,-35 -36,-35 -4,0 -8,1 -11,2 -9,-9 -21,-15 -33,-15 -15,0 -27,7 -35,18 -2,-1 -3,-1 -4,-1 -16,0 -28,12 -30,27 -18,7 -30,24 -30,43 0,25 20,46 46,46 7,0 15,-2 21,-5 3,-2 3,-5 2,-7 -1,-2 -4,-3 -6,-2 -6,3 -11,4 -17,4 -20,0 -36,-16 -36,-36 0,-16 10,-30 25,-35 1,0 2,0 2,-1 2,0 3,-2 3,-4 0,-11 9,-20 20,-20 1,0 3,0 5,1 2,0 5,-1 6,-4 0,0 0,0 0,0 6,-9 16,-14 28,-14 10,0 20,4 26,12 0,0 0,1 0,1 1,2 4,3 6,2 4,-1 8,-2 12,-2 15,0 27,11 27,25 0,2 -1,4 -1,6 -1,2 1,5 4,6 0,0 0,0 0,0 10,7 15,18 15,29 0,22 -18,39 -41,39 -9,0 -17,-3 -24,-8 -2,-2 -5,-1 -7,1 -2,2 -1,5 1,7 9,6 19,10 30,10 28,0 50,-22 50,-49 0,-14 -6,-28 -18,-37zm-57 87c-2,-2 -5,-1 -6,1l-13 18c-1,1 -1,2 -1,3l0 36c0,3 2,5 5,5 2,0 5,-2 5,-5l0 -34 12 -18c1,-2 1,-5 -2,-6zm-51 1c-1,-2 -4,-3 -6,-1 -2,2 -3,5 -1,7l15 17 0 34c0,3 2,5 4,5 3,0 5,-2 5,-5l0 -36c0,-1 0,-2 -1,-3l-16 -18zm40 -10c-2,-2 -5,-2 -7,0l-10 10 -11 -11c-2,-2 -5,-1 -7,1 -2,2 -2,5 0,6l15 14c1,1 3,1 4,1 1,0 2,0 3,-1l13 -13c2,-2 2,-5 0,-7z"/>
 </g>
</svg>
