<?xml version="1.0" encoding="UTF-8"?>
<!DOCTYPE svg PUBLIC "-//W3C//DTD SVG 1.1//EN" "http://www.w3.org/Graphics/SVG/1.1/DTD/svg11.dtd">
<!-- Creator: CorelDRAW X7 -->
<svg xmlns="http://www.w3.org/2000/svg" xml:space="preserve" width="17.0028mm" height="24.8585mm" version="1.1" style="shape-rendering:geometricPrecision; text-rendering:geometricPrecision; image-rendering:optimizeQuality; fill-rule:evenodd; clip-rule:evenodd"
viewBox="0 0 238 348"
 xmlns:xlink="http://www.w3.org/1999/xlink">
 <defs>
  <style type="text/css">
   <![CDATA[
    .fil0 {fill:#18F260}
   ]]>
  </style>
 </defs>
 <g id="Layer_x0020_1">
  <metadata id="CorelCorpID_0Corel-Layer"/>
  <path class="fil0" d="M235 246c-42,-42 -80,-23 -100,-7l-1 1c-3,3 -4,8 -1,12 3,3 8,4 12,1l1 -1c24,-20 49,-20 72,1 -6,7 -19,19 -37,22 -17,2 -35,-4 -54,-18l0 -46c10,3 20,5 29,5 9,0 17,-2 24,-5 27,-12 36,-39 36,-40 1,-4 0,-8 -4,-10 -36,-21 -61,-10 -76,4 -4,3 -4,8 -1,11 3,4 8,4 12,1 14,-13 31,-15 50,-5 -3,7 -11,18 -23,24 -13,5 -29,4 -47,-3l0 -41c24,-1 41,-9 53,-23 18,-21 13,-49 13,-50 -1,-4 -4,-6 -7,-7 -25,-3 -44,4 -58,19 -3,3 -2,8 1,11 3,3 9,3 12,0 8,-10 20,-14 36,-14 0,8 -1,21 -10,31 -8,10 -22,15 -40,17 -1,-13 -5,-34 -21,-49 -13,-12 -31,-17 -54,-15 -4,1 -7,3 -7,7 -4,20 3,62 51,71 4,1 9,-2 10,-6 1,-5 -2,-9 -7,-10 -35,-7 -39,-33 -38,-46 14,0 26,3 34,11 17,17 16,46 16,46 0,1 0,1 0,1l0 25c-7,-8 -17,-15 -29,-19 -18,-6 -37,-3 -56,9 -4,2 -5,6 -4,10 5,17 24,45 60,45 5,0 10,-1 16,-2 5,-1 8,-5 7,-10 -1,-4 -6,-7 -10,-6 -34,7 -49,-15 -55,-26 13,-6 26,-8 37,-4 20,6 31,27 34,32l0 43c-12,-9 -29,-21 -50,-22 -21,-2 -41,7 -59,25 -2,3 -3,7 -1,10 1,1 15,26 43,34 5,1 11,2 16,2 13,0 27,-4 41,-13 4,-2 5,-7 3,-11 -3,-4 -8,-5 -12,-3 -15,9 -30,12 -44,9 -14,-4 -24,-14 -29,-21 13,-11 27,-17 41,-16 28,2 49,28 51,30l0 72c0,5 3,9 8,9 4,0 8,-4 8,-9l0 -62c16,10 31,15 46,15 3,0 7,0 10,-1 34,-5 53,-33 53,-34 3,-4 2,-8 -1,-11zm-126 -173c4,-2 5,-7 3,-11 -10,-16 0,-33 8,-41 7,9 10,18 10,27 -1,16 -15,27 -15,27 -4,3 -5,8 -2,12 2,2 4,3 7,3 1,0 3,-1 5,-2 0,0 20,-15 21,-38 2,-17 -5,-32 -20,-48 -3,-3 -9,-3 -12,0 -13,12 -33,41 -16,68 2,4 7,6 11,3z"/>
 </g>
</svg>
