<?xml version="1.0" encoding="UTF-8"?>
<!DOCTYPE svg PUBLIC "-//W3C//DTD SVG 1.1//EN" "http://www.w3.org/Graphics/SVG/1.1/DTD/svg11.dtd">
<!-- Creator: CorelDRAW X7 -->
<svg xmlns="http://www.w3.org/2000/svg" xml:space="preserve" width="27.6308mm" height="24.8581mm" version="1.1" style="shape-rendering:geometricPrecision; text-rendering:geometricPrecision; image-rendering:optimizeQuality; fill-rule:evenodd; clip-rule:evenodd"
viewBox="0 0 266 239"
 xmlns:xlink="http://www.w3.org/1999/xlink">
 <defs>
  <style type="text/css">
   <![CDATA[
    .fil0 {fill:#8EAC27}
   ]]>
  </style>
 </defs>
 <g id="Layer_x0020_1">
  <metadata id="CorelCorpID_0Corel-Layer"/>
  <path class="fil0" d="M216 202c-3,0 -6,3 -6,6l0 26c0,3 3,5 6,5 3,0 6,-2 6,-5l0 -26c0,-3 -3,-6 -6,-6zm36 -94c1,-4 2,-8 2,-13 0,-11 -4,-22 -12,-29 0,-1 0,-1 0,-2 0,-14 -12,-26 -26,-26l0 0c-1,0 -1,0 -2,0 -3,1 -5,5 -3,8l0 0c0,2 3,4 5,4l0 0c1,0 1,0 2,-1 7,1 12,8 12,15 0,1 0,2 0,3 0,2 0,4 2,6 7,5 11,13 11,22 0,4 -1,8 -3,12 -1,3 -1,5 1,7 9,8 14,19 14,31 0,19 -14,36 -33,39l0 0c-1,0 -2,1 -3,1 0,0 -1,0 -2,0 0,0 0,0 -1,0 0,0 0,0 0,0 0,0 0,0 0,0 -1,0 -1,0 -1,0 -1,0 -2,0 -2,0 -1,0 -2,-1 -3,-1l0 0c-13,-2 -24,-11 -29,-24 13,-16 21,-43 21,-72 0,-49 -23,-88 -52,-88 -20,0 -38,18 -47,48 -1,3 1,6 4,7 3,1 6,-1 7,-4 7,-24 21,-40 36,-40 22,0 41,36 41,77 0,28 -8,53 -21,67 0,0 0,1 0,1 0,0 0,0 -1,0 0,0 0,0 0,1 0,0 0,0 0,0 0,0 0,0 0,1 0,0 0,0 0,0 0,0 -1,0 -1,1 0,0 0,0 0,0 0,0 0,1 0,1 0,0 0,0 0,0 1,0 1,1 1,1 0,0 0,0 0,0 6,18 21,31 39,34l1 1c1,0 2,0 3,0 1,0 2,0 3,0 0,0 0,0 0,0 0,0 1,0 1,0 0,0 0,0 0,0 0,0 1,0 1,0l0 0c1,0 2,0 3,0 1,0 2,0 3,0l1 -1c24,-4 42,-25 42,-50 0,-14 -5,-27 -14,-37zm-79 15c-1,-3 -5,-4 -8,-3l-10 4 0 -12 16 -9c2,-1 3,-5 1,-7 -1,-3 -5,-4 -7,-2l-10 5 0 -21c0,-3 -2,-6 -5,-6 -3,0 -6,3 -6,6l0 13 -7 -3c-3,-1 -6,0 -7,3 -2,3 0,7 3,8l11 5c0,0 0,0 0,0l0 13 -5 -2c-3,-1 -6,0 -7,3 -2,3 0,6 3,7l9 4c0,0 0,0 0,0l0 105c0,3 3,5 6,5 3,0 5,-2 5,-5l0 -98 15 -5c3,-1 4,-5 3,-8zm-61 18l11 0c2,0 4,-1 5,-3 1,-2 1,-4 -1,-6l-26 -36 8 0c2,0 4,-1 5,-3 1,-2 1,-4 -1,-6l-40 -53c-1,-2 -2,-3 -4,-3 -2,0 -4,1 -5,3l-40 53c-1,2 -1,4 0,6 1,2 3,3 5,3l8 0 -27 36c-1,2 -1,4 0,6 1,2 3,3 5,3l11 0 -25 33c-1,1 -1,4 0,6 1,2 3,3 5,3l57 0 0 51c0,3 3,5 6,5 3,0 6,-2 6,-5l0 -56c0,0 0,0 0,-1 0,0 0,0 0,0 0,-3 -3,-6 -6,-6l-52 0 25 -32c1,-2 1,-4 0,-6 -1,-2 -3,-3 -5,-3l-11 0 27 -36c2,-2 2,-4 1,-6 -1,-2 -3,-3 -5,-3l-9 0 29 -38 29 38 -9 0c-2,0 -4,1 -5,3 -1,2 -1,4 1,6l26 36 -10 0c-2,0 -4,1 -5,3 -1,2 -1,4 0,6l25 32 -32 0c-3,0 -5,3 -5,6 0,3 2,6 5,6l43 0c2,0 4,-1 5,-3 1,-2 1,-5 0,-6l-25 -33z"/>
 </g>
</svg>
