<?xml version="1.0" encoding="UTF-8"?>
<!DOCTYPE svg PUBLIC "-//W3C//DTD SVG 1.1//EN" "http://www.w3.org/Graphics/SVG/1.1/DTD/svg11.dtd">
<!-- Creator: CorelDRAW X7 -->
<svg xmlns="http://www.w3.org/2000/svg" xml:space="preserve" width="10.8199mm" height="24.858mm" version="1.1" style="shape-rendering:geometricPrecision; text-rendering:geometricPrecision; image-rendering:optimizeQuality; fill-rule:evenodd; clip-rule:evenodd"
viewBox="0 0 234 538"
 xmlns:xlink="http://www.w3.org/1999/xlink">
 <defs>
  <style type="text/css">
   <![CDATA[
    .fil0 {fill:#18F260}
   ]]>
  </style>
 </defs>
 <g id="Layer_x0020_1">
  <metadata id="CorelCorpID_0Corel-Layer"/>
  <path class="fil0" d="M117 0c-71,0 -117,166 -117,280 0,135 60,166 104,171l0 74c0,8 6,13 13,13 7,0 13,-5 13,-13l0 -86c0,-7 -6,-13 -13,-13 -75,0 -91,-79 -91,-146 0,-121 48,-254 91,-254 44,0 92,133 92,254 0,74 -20,122 -56,139 -7,3 -10,10 -7,17 3,6 11,9 17,6 47,-22 71,-76 71,-162 0,-114 -45,-280 -117,-280z"/>
 </g>
</svg>
