<?xml version="1.0" encoding="UTF-8"?>
<!DOCTYPE svg PUBLIC "-//W3C//DTD SVG 1.1//EN" "http://www.w3.org/Graphics/SVG/1.1/DTD/svg11.dtd">
<!-- Creator: CorelDRAW X7 -->
<svg xmlns="http://www.w3.org/2000/svg" xml:space="preserve" width="184.521mm" height="44.4933mm" version="1.1" style="shape-rendering:geometricPrecision; text-rendering:geometricPrecision; image-rendering:optimizeQuality; fill-rule:evenodd; clip-rule:evenodd"
viewBox="0 0 5349 1290"
 xmlns:xlink="http://www.w3.org/1999/xlink">
 <defs>
  <style type="text/css">
   <![CDATA[
    .fil0 {fill:#723A23}
    .fil1 {fill:#9EBE29}
   ]]>
  </style>
 </defs>
 <g id="Layer_x0020_1">
  <metadata id="CorelCorpID_0Corel-Layer"/>
  <path class="fil0" d="M721 775l-84 66 -63 -434c-1,-6 -10,-6 -11,0l-51 385 -131 -74c-12,-6 -24,8 -16,19l133 164 -33 245c-1,11 7,21 19,21l178 0c11,0 20,-10 19,-22l-29 -198 87 -156c7,-12 -8,-24 -18,-16z"/>
  <path class="fil1" d="M351 718c5,-9 14,-15 24,-15 4,0 9,1 13,3l53 30c27,-18 45,-49 45,-83 0,-56 -46,-102 -102,-102 -16,0 -32,4 -46,11 -12,-42 -51,-73 -97,-73 -46,0 -84,30 -97,71 -13,-6 -27,-9 -42,-9 -57,0 -102,46 -102,102 0,56 45,101 102,101 16,0 31,-4 45,-10 15,37 51,63 94,63 43,0 80,-27 95,-65 7,4 15,7 23,9l-5 -5c-6,-8 -7,-19 -3,-28z"/>
  <path class="fil1" d="M569 388c9,0 17,7 19,17l8 58c39,-5 72,-32 84,-68 10,3 21,5 32,5 12,0 23,-2 34,-6 3,53 47,95 101,95 56,0 102,-46 102,-102 0,-56 -46,-101 -102,-101 -12,0 -23,2 -34,6 -3,-53 -47,-95 -101,-95 -9,0 -18,1 -26,3 0,-1 0,-2 0,-3 0,-57 -46,-102 -102,-102 -56,0 -102,45 -102,102 0,3 1,6 1,9 -13,-6 -27,-9 -42,-9 -44,0 -82,28 -96,67 -8,-2 -16,-3 -24,-3 -56,0 -102,45 -102,101 0,56 46,102 102,102 44,0 81,-28 96,-67 7,2 15,3 24,3 16,0 31,-4 45,-11 8,30 29,54 57,66l6 -50c2,-10 10,-17 20,-17z"/>
  <path class="fil1" d="M964 610c-17,0 -33,4 -47,11 -7,-49 -49,-87 -101,-87 -49,0 -90,35 -99,81 -10,-3 -20,-5 -31,-5 -25,0 -48,9 -65,23 -23,19 -37,47 -37,78 0,42 25,78 61,94 4,1 7,2 11,3l56 -44c5,-3 10,-5 16,-5 10,0 18,5 23,13 5,8 5,18 0,26l-19 34c9,47 50,83 100,83 56,0 101,-46 101,-102 0,-2 0,-3 0,-5 10,3 20,5 31,5 56,0 102,-46 102,-102 0,-56 -46,-101 -102,-101z"/>
  <path class="fil1" d="M1357 432c11,0 20,9 21,20l23 345c88,-38 154,-193 154,-378 0,-214 -88,-388 -197,-388 -109,0 -197,174 -197,388 0,177 60,327 143,373l31 -340c1,-11 10,-20 22,-20z"/>
  <path class="fil0" d="M1477 850l-82 52 -30 -449c-1,-10 -16,-10 -17,0l-65 705c0,5 3,9 8,9l113 0c5,0 8,-4 8,-9l-12 -179 89 -116c7,-8 -3,-18 -12,-13z"/>
  <path class="fil1" d="M1812 378c0,0 -54,85 0,104 0,0 52,-12 0,-104z"/>
  <path class="fil1" d="M1922 334c0,0 65,76 99,29 0,0 4,-52 -99,-29z"/>
  <path class="fil1" d="M1920 401c0,0 65,77 99,30 0,0 4,-53 -99,-30z"/>
  <path class="fil1" d="M2176 178c0,0 -99,16 -76,70 0,0 43,30 76,-70z"/>
  <path class="fil1" d="M2197 275c0,0 -94,-34 -101,23 0,0 23,48 101,-23z"/>
  <path class="fil1" d="M2147 90c0,0 -95,35 -62,83 0,0 48,21 62,-83z"/>
  <path class="fil1" d="M2003 93c0,0 1,101 57,87 0,0 37,-38 -57,-87z"/>
  <path class="fil1" d="M1935 206c0,0 78,64 103,12 0,0 -5,-52 -103,-12z"/>
  <path class="fil1" d="M1920 283c0,0 85,52 103,-2 0,0 -12,-52 -103,2z"/>
  <path class="fil1" d="M2205 330c0,0 -99,-20 -97,38 0,0 29,44 97,-38z"/>
  <path class="fil1" d="M1897 430c0,0 -83,52 -43,92 0,0 51,11 43,-92z"/>
  <path class="fil1" d="M1941 515c0,0 -96,24 -69,74 0,0 44,26 69,-74z"/>
  <path class="fil1" d="M1976 585c0,0 -95,26 -67,76 0,0 46,25 67,-76z"/>
  <path class="fil1" d="M2357 608c0,0 -79,-63 -104,-11 0,0 7,53 104,11z"/>
  <path class="fil1" d="M2374 547c0,0 -78,-63 -103,-11 0,0 6,52 103,11z"/>
  <path class="fil1" d="M2389 469c0,0 -89,-48 -104,8 0,0 16,50 104,-8z"/>
  <path class="fil1" d="M2389 401c0,0 -89,-47 -104,9 0,0 16,50 104,-9z"/>
  <path class="fil1" d="M2370 293c0,0 -101,7 -83,62 0,0 40,34 83,-62z"/>
  <path class="fil1" d="M2274 215c0,0 -69,73 -19,102 0,0 53,-2 19,-102z"/>
  <path class="fil1" d="M2278 722c0,0 17,-100 -41,-96 0,0 -43,32 41,96z"/>
  <path class="fil1" d="M1820 882c0,0 96,-30 67,-80 0,0 -47,-24 -67,80z"/>
  <path class="fil1" d="M1770 817c0,0 101,-8 83,-63 0,0 -41,-34 -83,63z"/>
  <path class="fil1" d="M1721 736c0,0 99,22 98,-36 0,0 -29,-44 -98,36z"/>
  <path class="fil1" d="M1701 652c0,0 91,43 103,-13 0,0 -18,-50 -103,13z"/>
  <path class="fil1" d="M1694 569c0,0 79,62 103,10 0,0 -6,-53 -103,-10z"/>
  <path class="fil1" d="M1706 476c0,0 51,87 93,47 0,0 12,-52 -93,-47z"/>
  <path class="fil1" d="M2109 455c0,0 52,86 93,46 0,0 13,-51 -93,-46z"/>
  <path class="fil1" d="M2136 393c0,0 52,86 93,46 0,0 13,-52 -93,-46z"/>
  <path class="fil0" d="M2058 212l-87 959 191 0 -86 -959c-1,-11 -17,-11 -18,0z"/>
  <path class="fil0" d="M2077 786c0,0 -201,-13 -246,-287 -1,-7 -12,-6 -12,1 0,118 27,348 248,382l10 -96z"/>
  <path class="fil0" d="M2080 640c26,-12 165,-88 173,-292 1,-8 12,-9 14,-2 18,77 29,245 -180,375 -4,3 -10,-1 -10,-6l0 -69c0,-3 1,-5 3,-6z"/>
  <path class="fil1" d="M3260 208c0,46 -37,83 -83,83 -45,0 -82,-37 -82,-83 0,-45 37,-82 82,-82 46,0 83,37 83,82z"/>
  <path class="fil1" d="M2767 336c0,50 -41,90 -91,90 -50,0 -90,-40 -90,-90 0,-50 40,-91 90,-91 50,0 91,41 91,91z"/>
  <path class="fil1" d="M2968 83c0,45 -37,82 -82,82 -46,0 -83,-37 -83,-82 0,-46 37,-83 83,-83 45,0 82,37 82,83z"/>
  <path class="fil1" d="M2952 412c4,-5 9,-8 15,-8 7,0 14,4 17,10 7,13 16,29 25,47 44,-26 74,-74 74,-128 0,-82 -67,-148 -148,-148 -82,0 -148,66 -148,148 0,81 66,148 148,148 8,0 17,-1 25,-3 -4,-17 -7,-34 -11,-50 -2,-6 -1,-12 3,-16z"/>
  <path class="fil1" d="M2737 589c2,-9 10,-16 19,-16 1,0 3,0 4,1 25,5 57,14 90,26 -14,-87 -89,-154 -180,-154 -101,0 -183,82 -183,183 0,101 82,182 183,182 86,0 158,-59 177,-140 -29,-24 -62,-45 -100,-61 -8,-4 -12,-12 -10,-21z"/>
  <path class="fil1" d="M3301 287c-106,0 -191,86 -191,191 0,37 10,71 28,100 45,-62 100,-128 145,-152 3,-2 6,-2 9,-2 7,0 14,4 17,10 4,7 3,14 -1,20 -5,7 -12,15 -19,25 -27,35 -66,85 -103,152 32,24 72,39 115,39 106,0 191,-86 191,-192 0,-105 -85,-191 -191,-191z"/>
  <path class="fil0" d="M2995 1233c5,-60 95,-489 -243,-635 -7,-3 -2,-14 5,-12 64,15 172,48 230,102 4,5 11,1 11,-5 -3,-45 -13,-165 -37,-258 -2,-7 8,-12 12,-5 34,62 86,169 95,261 1,6 9,8 12,3 34,-53 138,-208 209,-247 6,-3 13,4 8,10 -57,79 -297,337 -214,785 1,4 -2,8 -7,8l-74 0c-4,0 -7,-3 -7,-7z"/>
  <path class="fil1" d="M4107 724c55,-107 44,-287 -194,-586 0,0 -304,337 -202,572 -94,165 -139,361 102,445l13 -133 -74 -138c-3,-7 -3,-14 1,-20 4,-7 10,-10 17,-10 5,0 10,1 13,4l55 44 5 -58 36 -362 13 -128c1,-11 10,-18 20,-18 11,0 19,7 20,18l13 130 22 219 27 -55c4,-7 10,-11 18,-11 6,0 11,3 15,7 4,5 5,11 4,17l-42 177 -6 26 28 286c106,-45 233,-156 96,-426z"/>
  <path class="fil0" d="M4017 657c1,-5 -7,-8 -10,-3l-49 100 -40 -399c-1,-7 -11,-7 -12,0l-57 576 -75 -62c-5,-4 -12,2 -9,8l76 142 -27 271 197 0 -43 -427 49 -206z"/>
  <path class="fil1" d="M5182 574c12,-25 20,-53 20,-82 0,-92 -69,-168 -158,-179 3,-13 5,-28 5,-43 0,-99 -80,-179 -179,-179 -99,0 -180,80 -180,179 0,16 3,32 7,47 -80,18 -140,89 -140,175 0,28 6,54 18,78 -105,25 -184,119 -184,232 0,132 107,239 240,239 63,0 120,-24 163,-64l-35 -260c-1,-11 2,-22 9,-31 8,-8 18,-13 29,-13 15,0 28,8 34,21 16,32 35,72 49,105 9,-19 19,-40 28,-60 6,-14 20,-22 34,-22 12,0 23,5 30,14 7,8 10,20 8,31l-36 213c43,41 101,66 165,66 132,0 240,-107 240,-239 0,-107 -71,-197 -167,-228z"/>
  <path class="fil0" d="M4954 757c2,-13 -16,-19 -22,-7 -15,31 -30,65 -41,90 -5,9 -18,9 -22,-1 -14,-32 -40,-91 -61,-133 -6,-12 -24,-6 -22,7l67 502c2,13 21,13 23,0l78 -458z"/>
 </g>
</svg>
