<?xml version="1.0" encoding="UTF-8"?>
<!DOCTYPE svg PUBLIC "-//W3C//DTD SVG 1.1//EN" "http://www.w3.org/Graphics/SVG/1.1/DTD/svg11.dtd">
<!-- Creator: CorelDRAW X7 -->
<svg xmlns="http://www.w3.org/2000/svg" xml:space="preserve" width="11.9811mm" height="24.858mm" version="1.1" style="shape-rendering:geometricPrecision; text-rendering:geometricPrecision; image-rendering:optimizeQuality; fill-rule:evenodd; clip-rule:evenodd"
viewBox="0 0 29 61"
 xmlns:xlink="http://www.w3.org/1999/xlink">
 <defs>
  <style type="text/css">
   <![CDATA[
    .fil0 {fill:white}
   ]]>
  </style>
 </defs>
 <g id="Layer_x0020_1">
  <metadata id="CorelCorpID_0Corel-Layer"/>
  <path class="fil0" d="M25 23c1,-2 1,-3 1,-5 0,-3 -1,-7 -4,-9 0,0 0,-1 0,-1 0,-5 -3,-8 -7,-8 -5,0 -8,3 -8,8 0,0 0,1 0,1 -2,2 -4,6 -4,9 0,2 1,3 1,5 -2,2 -4,6 -4,10 0,7 6,14 13,14l0 12c0,1 1,2 2,2 0,0 1,-1 1,-2l0 -13c0,-1 -1,-1 -1,-1 -7,0 -12,-6 -12,-12 0,-4 1,-7 4,-9 0,0 1,-1 0,-2 -1,-1 -1,-3 -1,-4 0,-3 1,-5 4,-7 0,0 0,-1 0,-2 0,0 0,-1 0,-1 0,-3 2,-5 5,-5 2,0 4,2 4,5 0,0 0,1 0,1 0,1 0,2 1,2 2,2 3,4 3,7 0,1 0,3 -1,4 0,1 0,2 0,2 3,2 4,5 4,9 0,5 -3,9 -7,11 -1,0 -1,1 -1,2 0,0 1,1 2,1 5,-3 9,-8 9,-14 0,-4 -1,-8 -4,-10z"/>
 </g>
</svg>
