<?xml version="1.0" encoding="UTF-8"?>
<!DOCTYPE svg PUBLIC "-//W3C//DTD SVG 1.1//EN" "http://www.w3.org/Graphics/SVG/1.1/DTD/svg11.dtd">
<!-- Creator: CorelDRAW X7 -->
<svg xmlns="http://www.w3.org/2000/svg" xml:space="preserve" width="17.4292mm" height="24.8581mm" version="1.1" style="shape-rendering:geometricPrecision; text-rendering:geometricPrecision; image-rendering:optimizeQuality; fill-rule:evenodd; clip-rule:evenodd"
viewBox="0 0 520 741"
 xmlns:xlink="http://www.w3.org/1999/xlink">
 <defs>
  <style type="text/css">
   <![CDATA[
    .fil0 {fill:#18F260}
   ]]>
  </style>
 </defs>
 <g id="Layer_x0020_1">
  <metadata id="CorelCorpID_0Corel-Layer"/>
  <path class="fil0" d="M431 565c-29,0 -52,-24 -52,-53 0,-29 23,-53 52,-53 30,0 53,24 53,53 0,29 -23,53 -53,53zm-169 -449c-22,0 -40,-18 -40,-41 0,-22 18,-40 40,-40 22,0 40,18 40,40 0,23 -18,41 -40,41zm123 37c16,0 29,13 29,29 0,16 -13,29 -29,29 -10,0 -19,-5 -24,-12 0,0 0,-1 0,-1 0,0 -1,-1 -1,-1 -3,-4 -4,-9 -4,-15 0,-16 13,-29 29,-29zm21 137c22,0 40,18 40,40 0,22 -18,40 -40,40 -22,0 -40,-18 -40,-40 0,-22 18,-40 40,-40zm25 134c-48,0 -88,39 -88,88 0,10 2,19 5,28l-29 17 -9 -149 43 -24c13,13 32,22 53,22 42,0 75,-34 75,-76 0,-41 -33,-75 -75,-75 -42,0 -75,34 -75,75 0,8 1,16 3,23l-26 16 -7 -116 41 -23c11,10 26,16 43,16 35,0 64,-28 64,-64 0,-35 -29,-64 -64,-64 -36,0 -64,29 -64,64 0,6 0,12 2,18l-24 14 -4 -71c25,-12 43,-38 43,-68 0,-41 -34,-75 -76,-75 -41,0 -75,34 -75,75 0,30 17,56 43,68l-4 59c0,10 7,18 17,19 0,0 1,0 1,0 9,0 17,-8 18,-17l0 -11 32 531c1,10 8,17 18,17 0,0 0,0 1,0 10,-1 17,-9 16,-19l-7 -126 44 -25c16,18 39,29 65,29 49,0 89,-39 89,-88 0,-49 -40,-88 -89,-88zm-298 -190c-16,0 -29,-13 -29,-29 0,-16 13,-29 29,-29 16,0 29,13 29,29 0,16 -13,29 -29,29zm124 34c0,0 0,-1 0,-1 0,-1 0,-2 0,-2 0,-1 -1,-1 -1,-2 0,0 0,-1 -1,-1 0,-1 0,-1 0,-2 -1,0 -1,-1 -1,-1 -1,-1 -1,-1 -2,-1 0,-1 0,-1 -1,-1 0,-1 -1,-1 -1,-2 -1,0 -1,0 -1,0l-55 -32c2,-6 3,-12 3,-18 0,-36 -29,-64 -64,-64 -36,0 -64,28 -64,64 0,35 28,64 64,64 16,0 31,-6 42,-16l47 27 -8 124c0,9 7,18 17,18 0,0 1,0 1,0 9,0 17,-7 18,-16l8 -135c0,0 -1,-1 -1,-1 0,-1 0,-1 0,-2zm-147 123c0,1 0,1 0,1 0,0 0,0 0,0 -8,12 -20,19 -35,19 -22,0 -40,-18 -40,-40 0,-22 18,-40 40,-40 23,0 41,18 41,40 0,7 -2,14 -6,20zm136 68c0,-1 0,-1 0,-2 0,0 0,-1 -1,-1 0,-1 0,-1 0,-2 0,0 -1,-1 -1,-1 0,-1 0,-1 -1,-2 0,0 0,-1 -1,-1 0,-1 -1,-1 -1,-1 0,-1 -1,-1 -1,-2 -1,0 -1,0 -2,-1 0,0 0,0 -1,0l-90 -53c3,-7 4,-14 4,-22 0,-42 -34,-75 -76,-75 -41,0 -75,33 -75,75 0,42 34,76 75,76 21,0 40,-9 54,-23l81 47 -5 95c-1,10 6,18 16,18 1,0 1,1 1,1 10,0 17,-8 18,-17l6 -106c0,0 0,-1 0,-1 0,-1 0,-1 0,-2zm-118 110c0,0 0,0 0,0 0,0 0,0 0,0 -7,12 -20,20 -35,20 -22,0 -40,-18 -40,-40 0,-23 18,-41 40,-41 22,0 40,18 40,41 0,7 -2,14 -5,20zm108 51c0,-1 0,-1 0,-2 0,0 0,-1 0,-1 0,-1 -1,-2 -1,-2 0,-1 0,-1 -1,-2 0,0 0,-1 0,-1 -1,-1 -1,-1 -1,-1 -1,-1 -1,-1 -2,-2 0,0 0,0 -1,-1 0,0 -1,-1 -1,-1 -1,0 -1,0 -1,-1l-63 -36c3,-7 4,-14 4,-21 0,-42 -34,-76 -76,-76 -41,0 -75,34 -75,76 0,41 34,75 75,75 22,0 41,-9 55,-23l53 31 -6 90c0,10 7,18 17,19 0,0 1,0 1,0 9,0 17,-7 18,-17l6 -101c0,-1 0,-1 0,-1 0,-1 0,-2 -1,-2z"/>
 </g>
</svg>
