<?xml version="1.0" encoding="UTF-8"?>
<!DOCTYPE svg PUBLIC "-//W3C//DTD SVG 1.1//EN" "http://www.w3.org/Graphics/SVG/1.1/DTD/svg11.dtd">
<!-- Creator: CorelDRAW X7 -->
<svg xmlns="http://www.w3.org/2000/svg" xml:space="preserve" width="19.1063mm" height="24.8585mm" version="1.1" style="shape-rendering:geometricPrecision; text-rendering:geometricPrecision; image-rendering:optimizeQuality; fill-rule:evenodd; clip-rule:evenodd"
viewBox="0 0 250 325"
 xmlns:xlink="http://www.w3.org/1999/xlink">
 <defs>
  <style type="text/css">
   <![CDATA[
    .fil0 {fill:#18F260}
   ]]>
  </style>
 </defs>
 <g id="Layer_x0020_1">
  <metadata id="CorelCorpID_0Corel-Layer"/>
  <path class="fil0" d="M245 90c-22,-18 -46,-30 -71,-35 4,-7 11,-16 24,-23 5,-3 8,-9 6,-15 -1,-6 -6,-10 -12,-10 -1,0 -1,0 -1,0 -29,1 -52,10 -66,26 -6,-13 -18,-30 -35,-33 -6,-1 -12,3 -14,8 -2,6 0,13 5,16 0,1 1,2 2,2 3,4 4,8 4,13 -8,-3 -20,-5 -32,-5 -21,0 -38,7 -51,20 -5,5 -5,12 -1,17 2,4 6,6 10,6 2,0 4,-1 6,-2 13,-6 27,-7 39,-3 -15,2 -32,9 -44,25 -11,14 -15,34 -13,58 1,7 6,12 12,13 7,0 13,-4 14,-10 4,-13 9,-23 16,-30 11,-12 26,-16 46,-12 4,1 8,-2 9,-6 1,-4 -2,-8 -6,-9 -25,-5 -46,1 -60,16 -7,7 -12,15 -16,25 0,-15 4,-27 11,-36 13,-18 36,-20 49,-20 4,0 7,0 7,0 0,0 0,0 0,0 3,0 7,-1 8,-4 2,-4 1,-7 -2,-9 -14,-13 -29,-19 -45,-19 -7,0 -13,1 -19,3 8,-5 18,-8 30,-8 19,0 36,7 36,7 2,1 4,1 7,0 2,-1 3,-3 3,-6 2,-12 1,-22 -3,-30 9,9 15,24 17,31 1,3 4,5 7,6 3,0 6,-2 7,-4 10,-17 28,-27 54,-30 -20,14 -28,33 -28,36 -1,2 -1,4 0,6 2,2 4,4 6,4 22,2 43,11 63,24 -21,-6 -40,-8 -53,-8 -12,0 -21,1 -21,2 -4,0 -6,2 -7,5 0,4 1,7 3,9 32,21 40,49 40,73 -9,-24 -23,-39 -34,-48 -8,-5 -16,-10 -26,-13 0,0 0,0 0,0 0,0 0,0 0,0 0,0 0,0 0,0 0,0 0,0 0,0 -1,-1 -1,-1 -1,-1 0,0 -1,0 -1,0 0,0 0,0 -1,0 0,0 0,0 0,0 -1,0 -1,0 -1,0 0,1 -1,1 -1,1 0,0 0,0 -1,0 0,0 0,0 0,0 0,0 -1,1 -1,1 0,0 0,0 0,0 -1,0 -1,1 -1,1 0,0 0,0 0,0 -1,1 -1,1 -1,1 0,0 0,0 0,1 0,0 0,0 0,0 -1,0 -1,0 -1,0 0,0 0,0 0,0 0,0 0,0 0,0 -4,12 -8,28 -11,46 -3,1 -6,1 -11,0 -4,-1 -8,2 -8,6 -1,4 2,8 6,9 4,1 8,1 11,1 -1,6 -1,12 -2,19 -2,0 -8,1 -15,1 -4,-1 -8,2 -8,7 0,4 3,8 7,8 2,0 4,0 6,0 4,0 8,0 10,0 1,7 1,15 3,22 -1,0 -2,0 -2,1 -1,0 -7,2 -19,2 -4,0 -7,4 -7,8 0,4 3,8 7,8 14,0 23,-3 24,-4 2,8 5,16 9,24 -5,2 -13,3 -23,3 -12,0 -20,-1 -24,-3 -2,-15 -6,-74 20,-135 2,-4 0,-9 -4,-10 -4,-2 -8,0 -10,4 -33,75 -21,145 -21,148 1,2 2,4 4,6 1,0 12,6 35,6 23,0 37,-8 38,-9 3,-2 4,-7 2,-10 -26,-44 -16,-110 -5,-145 5,3 10,5 15,9 11,8 25,23 31,51 1,6 7,10 13,10 0,0 1,0 1,0 6,0 12,-5 12,-12 3,-25 0,-60 -29,-87 15,0 37,2 60,12 2,0 4,1 5,1 5,0 9,-3 12,-7 3,-5 2,-13 -3,-17zm-93 171c-4,-2 -9,0 -11,4 -2,3 0,8 3,10 15,8 25,19 29,31 0,1 0,2 -1,2 0,1 -1,2 -2,2l-147 0c-1,0 -2,-1 -3,-2 0,0 0,-1 0,-2 3,-8 8,-16 16,-22 3,-3 3,-8 1,-11 -3,-4 -8,-4 -11,-1 -10,8 -17,18 -21,29 -1,6 0,12 3,17 3,4 9,7 15,7l147 0c6,0 12,-3 15,-7 3,-5 4,-11 3,-17 -6,-16 -18,-30 -36,-40z"/>
 </g>
</svg>
